<svg xmlns="http://www.w3.org/2000/svg"><symbol id="facebook" viewBox="0 0 48.5 48.5"><path fill="#221e1f" d="M.6 24.2a24 24 0 1 1 48 .1 24 24 0 1 1-48-.1zm30 1l.5-5.1h-4.3a20.8 20.8 0 0 1 0-2.5c0-1.3.4-1.7 1.7-1.6h2.6v-4.9h-4.3c-3.7 0-5.9 2.2-5.9 6a29.9 29.9 0 0 0 0 3h-2.8V25h2.6v14h6V25.2z"/><path fill="#fff" d="M30.6 25.2h-3.9V39h-6V25.1h-2.6v-5h2.8a29.9 29.9 0 0 1 0-3c0-3.8 2.2-6 5.9-6h4.3V16h-2.6c-1.3-.1-1.7.3-1.7 1.6a20.8 20.8 0 0 0 0 2.5h4.3z"/></symbol><symbol id="instagram" viewBox="0 0 48.5 48.5"><circle cx="24.3" cy="24.2" r="24" fill="#221e1f"/><path fill="#fff" d="M24.5 38.7c-2.7 0-5.4-.1-8.1 0a5.4 5.4 0 0 1-5.5-5.5V17.1a5.3 5.3 0 0 1 5.6-5.7h16.1a5.2 5.2 0 0 1 5.2 3.5 7.1 7.1 0 0 1 .4 2.1v16.2a5.3 5.3 0 0 1-5.6 5.5zm-11-16.3v10.9a2.7 2.7 0 0 0 2.8 2.8c.1-.1.3 0 .4 0h16.4a2.3 2.3 0 0 0 2.2-1.7 3.2 3.2 0 0 0 .3-1.4v-9.8c0-.3-.1-.5-.1-.9h-4c1 3.9.1 6.9-2.6 8.8a6.9 6.9 0 0 1-8 .4c-3.5-2.1-4.5-5.3-3.4-9.1zm15.8 2.7a4.7 4.7 0 0 0-4.7-4.8 4.8 4.8 0 1 0 4.7 4.8zm1.1-10.4v4.5H35v-4.5z"/></symbol><symbol id="close" viewBox="0 0 48.5 48.5"><circle cx="24.2" cy="24.2" r="24" fill="#221e1f"/><path fill="#fff" fill-rule="evenodd" d="M28 24.3l11.1-11.2a2.6 2.6 0 0 0-3.7-3.7L24.2 20.5 13.1 9.4a2.6 2.6 0 0 0-3.7 3.7l11.1 11.1L9.4 35.4a2.6 2.6 0 0 0 3.7 3.7L24.2 28l11.2 11.1a2.6 2.6 0 0 0 3.7-3.7z"/></symbol><symbol id="menu" viewBox="0 0 48.5 48.5"><circle cx="24.5" cy="24.2" r="24" fill="#221e1f"/><path fill="#fff" d="M38.8 14.2a1.2 1.2 0 0 0-1.2-1.2H10.9a1.2 1.2 0 0 0-1.2 1.2v2.4a1.2 1.2 0 0 0 1.2 1.2h26.7a1.2 1.2 0 0 0 1.2-1.2zm0 9.7a1.2 1.2 0 0 0-1.2-1.2H10.9a1.2 1.2 0 0 0-1.2 1.2v2.4a1.2 1.2 0 0 0 1.2 1.2h26.7a1.2 1.2 0 0 0 1.2-1.2zm0 9.7a1.2 1.2 0 0 0-1.2-1.2H10.9a1.2 1.2 0 0 0-1.2 1.2V36a1.2 1.2 0 0 0 1.2 1.2h26.7a1.2 1.2 0 0 0 1.2-1.2z"/></symbol><symbol id="menu-1" viewBox="0 0 48.5 48.5"><circle cx="24.2" cy="24.2" r="24" fill="#221e1f"/><circle cx="12.3" cy="12.2" r="3.6" fill="#fff"/><circle cx="36.3" cy="12.2" r="3.6" fill="#fff"/><circle cx="24.3" cy="12.2" r="3.6" fill="#fff"/><circle cx="12.2" cy="24.3" r="3.6" fill="#fff"/><circle cx="36.2" cy="24.3" r="3.6" fill="#fff"/><circle cx="24.2" cy="24.3" r="3.6" fill="#fff"/><circle cx="12.2" cy="36.3" r="3.6" fill="#fff"/><circle cx="36.2" cy="36.3" r="3.6" fill="#fff"/><circle cx="24.2" cy="36.3" r="3.6" fill="#fff"/></symbol><symbol id="twitter" viewBox="0 0 48.5 48.5"><circle cx="24.2" cy="24.2" r="24" fill="#221e1f"/><path fill="#fff" d="M38.5 15.1l-1.8 2.4 2.6-.5-2 2.1a2.5 2.5 0 0 0-.6 1.4 15.7 15.7 0 0 1-13.5 15.4 15.1 15.1 0 0 1-10.1-2.1c1.3-.2 2.6-.3 3.8-.6a16.2 16.2 0 0 0 3.5-1.7 6 6 0 0 1-4.8-3.9h1.8c-2.2-1.2-3.7-2.8-3.8-5.5l2.4.6c-2.3-2.2-3-4.5-1.7-7.4 3.1 3.4 6.7 5.5 11.3 5.7v-1.7c.3-4.1 5-6.6 8.4-4.3a2.9 2.9 0 0 0 3.3.3l1-.5z"/></symbol><symbol id="cart" viewBox="0 0 48.5 48.5"><circle cx="24.2" cy="24.2" r="24" fill="#221e1f"/><path fill="#fff" d="M18.1 33.5a3.1 3.1 0 1 0 3.1 3.1 3.1 3.1 0 0 0-3.1-3.1zM8.8 8.8v3.1h3.1l5.6 11.7-2.2 3.7a9 9 0 0 0-.3 1.6 3.1 3.1 0 0 0 3.1 3.1h18.5v-3.1H18.7a.3.3 0 0 1-.3-.3v-.2l1.4-2.6h11.4a2.9 2.9 0 0 0 2.6-1.5l5.5-10.1a.7.7 0 0 0 .3-.7 1.4 1.4 0 0 0-1.5-1.6H15.3l-1.4-3.1zm24.7 24.7a3.1 3.1 0 1 0 3.1 3.1 3.1 3.1 0 0 0-3.1-3.1z"/></symbol></svg>