<svg xmlns="http://www.w3.org/2000/svg" id="图层_1" viewBox="0 0 196 196" width="196" height="196"><style>.st0{fill:#221e1f}.st1{fill:#393536}.st2{fill:#504d4e}.st3{fill:#676465}.st4{fill:#7e7c7d}.st5{fill:#959394}.st6{fill:#acabac}.st7{fill:#c3c2c3}.st8{fill:#dadadb}.st9{fill:#f1f1f2}.st10{fill:#fff}</style><path d="M0 0h196v196H0V0z" class="st0"/><path d="M98.2 97.1c-.1 2.5.1 5.1.4 7.6.3 2.2 1 4.4 2 6.4s2.4 3.7 4.1 5.1c1.9 1.7 4.1 2.9 6.5 3.8 3.1 1.1 5.9 1 8.5-.3 2.6-1.4 3.8-4.5 3.9-9.4.1-2.4-.2-4.8-.8-7.1-.6-2.2-1.6-4.4-2.9-6.3-1.6-2.3-3.4-4.4-5.5-6.2-2.3-2.1-5.1-4.5-8.4-7.1-4.1-3.1-8-6.4-11.6-10.1-3.1-3.1-5.8-6.6-8.1-10.3-2.2-3.5-3.7-7.4-4.7-11.5-1-4.3-1.5-8.8-1.3-13.2.1-11.5 3.1-19 8.7-22.6s13.3-3.5 23 .1c4.4 1.7 8.6 3.8 12.5 6.4 3.7 2.5 7 5.7 9.8 9.2 2.8 3.7 4.9 7.8 6.3 12.2 1.5 4.9 2.2 10 2.1 15.1v3.3l-19.5-7.3c.1-5.5-.7-10.1-2.3-13.7s-4.4-6.2-8.4-7.7c-2.3-.8-4.1-1.2-5.7-1-1.4.2-2.6.7-3.7 1.7-.9 1-1.6 2.3-1.9 3.6-.4 1.6-.6 3.2-.6 4.9-.1 3.3.5 6.7 1.8 9.8 1.3 2.9 4.1 6.2 8.3 9.9l15.5 13.7c3.4 2.9 6.5 6.2 9.4 9.7 2.2 2.8 4.2 5.8 5.7 9 1.4 2.9 2.3 6 2.9 9.2.5 3.3.7 6.7.7 10.1-.2 12.3-3.5 20.1-9.8 23.3-6.3 3.3-14.9 2.8-25.9-1.3-11.5-4.3-19.7-10.3-24.5-17.8-4.8-7.6-7.2-16.8-7-27.6l.1-4.7 20.4 7.6v3.5z" class="st0"/><path d="M95 98.1c-.1 2.5.1 5.1.4 7.6.3 2.2 1 4.4 2 6.4s2.4 3.7 4.1 5.1c1.9 1.6 4.1 2.9 6.5 3.8 3.1 1.2 5.9 1.1 8.4-.3 2.5-1.4 3.9-4.5 4-9.4.1-2.4-.2-4.8-.8-7.1-.6-2.2-1.6-4.4-3-6.3-1.6-2.3-3.4-4.4-5.5-6.3-2.3-2.1-5.1-4.4-8.4-7-4.1-3.1-8-6.4-11.7-10.1-3.1-3.1-5.8-6.6-8.1-10.3-2.2-3.5-3.7-7.4-4.7-11.5-1-4.3-1.5-8.8-1.3-13.2.2-11.5 3.1-19 8.8-22.6 5.6-3.6 13.3-3.5 23 .1 4.4 1.6 8.6 3.7 12.4 6.4 3.7 2.5 7.1 5.7 9.8 9.2 2.8 3.7 4.9 7.8 6.3 12.2 1.5 4.9 2.2 10 2.1 15.1v3.3L120 56c.1-5.5-.7-10.1-2.3-13.7s-4.4-6.2-8.4-7.7c-2.3-.8-4.1-1.2-5.7-1-1.4.1-2.7.7-3.7 1.7-.9 1-1.6 2.3-1.9 3.6-.4 1.6-.6 3.2-.6 4.9-.1 3.3.5 6.7 1.8 9.8 1.3 2.9 4.1 6.2 8.4 9.9l15.5 13.7c3.4 3 6.5 6.2 9.3 9.6 2.3 2.8 4.2 5.8 5.7 9 1.4 2.9 2.4 6 2.9 9.2.5 3.3.7 6.7.6 10.1-.2 12.2-3.4 20-9.7 23.3-6.3 3.3-14.9 2.9-25.9-1.3S86.5 127 81.7 119.4s-7.2-16.8-7-27.6l.1-4.7 20.3 7.6-.1 3.4z" class="st1"/><path d="M91.9 99.2c-.1 2.5.1 5.1.4 7.6.3 2.2.9 4.4 2 6.4 1.1 1.9 2.5 3.7 4.1 5.1 1.9 1.6 4.1 2.9 6.5 3.8 3.1 1.2 5.9 1 8.4-.3s3.9-4.5 4-9.4c.1-2.4-.2-4.8-.8-7.1-.6-2.2-1.6-4.4-3-6.3-1.6-2.3-3.4-4.4-5.5-6.2-2.3-2.1-5.1-4.4-8.5-7-4.1-3.1-8-6.4-11.6-10.1-3.1-3.1-5.8-6.6-8.2-10.3C77.6 61.8 76 58 75 53.9c-1-4.3-1.5-8.8-1.3-13.2.2-11.5 3.1-19 8.8-22.6 5.6-3.6 13.3-3.5 23 .1 4.4 1.6 8.6 3.8 12.4 6.4 7.6 5.1 13.3 12.7 16.1 21.4 1.6 4.9 2.3 10 2.1 15.1l-.1 3.3-19.3-7.4c.1-5.6-.7-10.1-2.3-13.8-1.6-3.7-4.4-6.1-8.4-7.6-2.3-.8-4.1-1.2-5.7-1-1.4.1-2.7.7-3.7 1.7-.9 1-1.6 2.3-1.9 3.6-.4 1.6-.6 3.2-.6 4.9-.1 3.4.5 6.7 1.8 9.8 1.2 2.9 4.1 6.2 8.3 9.9l15.5 13.6c3.4 2.9 6.5 6.2 9.4 9.7 2.3 2.8 4.2 5.8 5.7 9 1.4 2.9 2.4 6 2.9 9.2.5 3.3.7 6.7.6 10.1-.2 12.2-3.5 20.1-9.7 23.3-6.2 3.3-14.9 2.9-25.9-1.2-11-4.1-19.7-10.2-24.5-17.8s-7.2-16.8-7-27.5v-4.7l20.4 7.6.3 3.4z" class="st2"/><path d="M88.6 100.2c0 2.5.1 5.1.4 7.6.3 2.2 1 4.4 2 6.4 1 1.9 2.4 3.7 4.1 5.1 1.9 1.6 4.2 2.9 6.6 3.8 3.1 1.1 5.9 1 8.4-.3s3.9-4.5 4-9.4c.1-2.4-.2-4.8-.8-7.1-.6-2.2-1.6-4.4-3-6.3-1.6-2.3-3.5-4.4-5.5-6.2-2.3-2.1-5.1-4.4-8.4-7-4.1-3.1-8-6.4-11.7-10.1-3.1-3.1-5.8-6.6-8.2-10.3-2.1-3.6-3.7-7.4-4.7-11.5-1-4.3-1.5-8.8-1.3-13.2.2-11.5 3.1-19 8.7-22.6 5.6-3.6 13.3-3.6 23.1.1 4.4 1.6 8.6 3.8 12.4 6.4 7.6 5.1 13.3 12.7 16.2 21.4 1.5 4.9 2.2 10 2.1 15.2v3.2L113.6 58c.1-5.5-.7-10.1-2.3-13.7-1.6-3.6-4.4-6.2-8.4-7.7-2.3-.8-4.1-1.1-5.7-.9-1.4.1-2.7.7-3.7 1.7-.9 1-1.6 2.3-1.9 3.6-.4 1.6-.6 3.2-.6 4.9-.1 3.4.5 6.7 1.8 9.8 1.3 2.9 4.1 6.2 8.3 9.9l15.6 13.7c3.4 3 6.5 6.2 9.3 9.6 2.3 2.8 4.2 5.8 5.8 9 1.4 2.9 2.3 6 2.9 9.2.5 3.3.8 6.7.7 10.1-.2 12.3-3.5 20.1-9.7 23.4-6.2 3.3-14.9 2.9-25.9-1.2-11-4.1-19.7-10.2-24.5-17.8-4.8-7.6-7.2-16.8-7-27.5l.1-4.7L88.7 97l-.1 3.2z" class="st3"/><path d="M85.5 101.2c-.1 2.5.1 5.1.4 7.6.3 2.2 1 4.4 2 6.4 1 1.9 2.4 3.7 4.1 5.1 1.9 1.6 4.2 2.9 6.6 3.8 3.1 1.1 5.9 1 8.4-.4s3.9-4.5 4-9.4c.1-2.4-.2-4.8-.8-7.1-.6-2.2-1.6-4.4-3-6.3-1.6-2.3-3.4-4.4-5.5-6.2-2.3-2.1-5.1-4.4-8.5-7-4.1-3.1-8-6.5-11.6-10.1-3.1-3.1-5.8-6.6-8.2-10.3-2.1-3.5-3.7-7.4-4.7-11.4-1-4.3-1.5-8.8-1.3-13.2.2-11.5 3.1-19 8.7-22.6 5.6-3.6 13.3-3.6 23 0 4.4 1.7 8.6 3.8 12.5 6.4 3.8 2.5 7.1 5.6 9.8 9.2 2.8 3.7 4.9 7.8 6.4 12.2 1.5 4.9 2.2 10 2.1 15.1v3.3L110.4 59c.1-5.5-.7-10.1-2.3-13.7-1.6-3.6-4.4-6.2-8.4-7.7-2.3-.8-4.1-1.1-5.7-.9-1.4.1-2.7.7-3.7 1.7-.9 1-1.6 2.3-1.9 3.6-.4 1.6-.6 3.2-.6 4.9-.1 3.3.5 6.7 1.8 9.7 1.3 3 4.1 6.3 8.3 9.9l15.6 13.7c3.4 2.9 6.6 6.1 9.4 9.6 2.2 2.8 4.2 5.8 5.7 9 1.4 2.9 2.4 6 2.9 9.2.5 3.3.8 6.7.7 10.1-.2 12.2-3.4 20.1-9.7 23.3s-14.9 2.9-25.9-1.2c-11-4.1-19.7-10.2-24.5-17.8-4.8-7.6-7.2-16.8-7-27.5v-4.7l20.4 7.6v3.4z" class="st4"/><path d="M82.3 102.3c-.1 2.5.1 5.1.4 7.6.3 2.2 1 4.4 2 6.4 1 1.9 2.4 3.7 4.1 5.1 1.9 1.6 4.2 2.9 6.6 3.8 3.1 1.1 5.9 1 8.4-.4s3.9-4.5 3.9-9.4c.1-2.4-.2-4.8-.8-7.1-.6-2.2-1.6-4.4-3-6.3-1.6-2.3-3.5-4.4-5.5-6.2-2.3-2.1-5.1-4.4-8.4-7-4.1-3.1-8-6.5-11.7-10.1-3.1-3.1-5.8-6.6-8.2-10.3C68 64.9 66.4 61 65.4 57c-1-4.3-1.5-8.8-1.3-13.2.2-11.5 3.1-19 8.7-22.6 5.6-3.6 13.3-3.6 23 0 4.4 1.6 8.6 3.8 12.5 6.4 7.6 5.1 13.3 12.7 16.2 21.4 1.5 4.9 2.2 10 2.1 15.1v3.3L107.2 60c.1-5.5-.7-10.1-2.3-13.7s-4.4-6.2-8.4-7.7c-2.3-.8-4.1-1.1-5.7-.9-1.4.1-2.6.7-3.7 1.6-.9 1-1.6 2.3-1.9 3.7-.4 1.6-.6 3.2-.6 4.8-.1 3.4.5 6.7 1.8 9.8 1.3 3 4.1 6.3 8.4 9.9l15.6 13.6c3.3 3 6.5 6.2 9.3 9.6 2.3 2.8 4.2 5.8 5.8 9 1.4 2.9 2.4 6 2.9 9.2.5 3.3.7 6.7.7 10.1-.2 12.3-3.4 20.1-9.7 23.4s-14.9 2.9-25.9-1.2c-11-4.1-19.7-10.2-24.5-17.8-4.8-7.6-7.2-16.7-7.1-27.5l.1-4.7 20.4 7.6-.1 3.5z" class="st5"/><path d="M79.1 103.3c0 2.5.1 5.1.5 7.6.3 2.2 1 4.4 2 6.4 1 1.9 2.4 3.7 4.1 5.1 1.9 1.6 4.2 2.9 6.6 3.7 3.1 1.2 5.9 1 8.4-.3s3.9-4.5 3.9-9.4c.1-2.4-.2-4.8-.8-7.1-.6-2.2-1.6-4.4-3-6.3-1.6-2.3-3.5-4.4-5.5-6.2-2.3-2.1-5.1-4.4-8.5-7-4.1-3.1-8-6.4-11.7-10-3.1-3.1-5.8-6.6-8.2-10.3-2.1-3.5-3.7-7.4-4.7-11.4-1-4.3-1.4-8.8-1.3-13.2.1-11.5 3-19 8.7-22.7 5.7-3.6 13.4-3.6 23 0 4.4 1.6 8.6 3.8 12.5 6.4 7.6 5.1 13.3 12.6 16.2 21.4 1.5 4.9 2.2 10 2.1 15.1v3.3L104 61.1c0-5.5-.7-10.1-2.4-13.7s-4.4-6.1-8.4-7.6c-2.3-.8-4.1-1.2-5.7-1-1.4.1-2.7.7-3.7 1.7-.9 1-1.6 2.3-1.9 3.7-.4 1.6-.6 3.2-.6 4.8-.1 3.4.5 6.7 1.8 9.8 1.3 3 4.1 6.2 8.4 9.9l15.6 13.6c3.4 2.9 6.5 6.2 9.4 9.6 2.3 2.8 4.2 5.8 5.8 9 1.4 2.9 2.3 6 2.9 9.2.5 3.3.7 6.7.7 10.1-.2 12.2-3.4 20-9.7 23.3-6.3 3.3-14.9 2.9-25.9-1.2-11.5-4.2-19.7-10.2-24.5-17.8-4.8-7.6-7.2-16.7-7.1-27.5v-4.7l20.4 7.6v3.4z" class="st6"/><path d="M75.9 104.3c-.1 2.5.1 5.1.4 7.6.3 2.2 1 4.4 2.1 6.4 1 1.9 2.4 3.7 4.1 5.1 1.9 1.6 4.2 2.9 6.6 3.8 3.1 1.2 5.9 1 8.4-.4s3.9-4.5 3.9-9.4c.1-2.4-.2-4.8-.8-7.1-.6-2.2-1.6-4.4-3-6.3-1.6-2.3-3.5-4.3-5.5-6.2-2.3-2.1-5.1-4.4-8.5-7-4.1-3.1-8-6.4-11.7-10-3.1-3.1-5.8-6.6-8.2-10.3-2.2-3.5-3.8-7.4-4.7-11.4-1-4.3-1.5-8.8-1.4-13.2.1-11.5 3-19.1 8.7-22.7 5.7-3.6 13.3-3.6 23.1 0 4.4 1.6 8.6 3.7 12.4 6.3 3.8 2.5 7.1 5.6 9.8 9.2 2.8 3.7 5 7.8 6.4 12.2 1.5 4.9 2.2 10 2.1 15.1v3.3l-19.5-7.2c0-5.5-.7-10.1-2.4-13.7-1.6-3.6-4.7-6.4-8.4-7.6-2.3-.8-4.1-1.2-5.7-1-1.4.1-2.7.7-3.7 1.7-.9 1-1.6 2.3-1.9 3.7-.4 1.6-.6 3.2-.6 4.8-.1 3.4.5 6.7 1.8 9.8 1.3 2.9 4.1 6.2 8.4 9.9l15.6 13.6c3.4 2.9 6.5 6.1 9.3 9.6 2.3 2.8 4.2 5.8 5.8 9 1.4 2.9 2.4 6 2.9 9.2.6 3.3.8 6.7.7 10.1-.2 12.2-3.4 20-9.7 23.4-6.3 3.3-14.9 2.9-25.9-1.2-11.5-4.2-19.7-10.2-24.5-17.8-4.8-7.6-7.3-16.7-7.1-27.5v-4.7l20.4 7.6.3 3.3z" class="st7"/><path d="M72.8 105.4c-.1 2.5.1 5.1.4 7.6.3 2.2 1 4.4 2.1 6.4 1 1.9 2.4 3.7 4.1 5.1 1.9 1.6 4.2 2.9 6.6 3.8 3.1 1.1 5.9 1 8.4-.4s3.9-4.5 3.9-9.4c.1-2.4-.2-4.8-.8-7.1-.6-2.2-1.6-4.3-3-6.2-1.6-2.3-3.4-4.4-5.5-6.2-2.7-2.5-5.5-4.8-8.5-7-4.1-3.1-8-6.4-11.7-10-3.1-3.1-5.8-6.6-8.2-10.3-2.2-3.5-3.8-7.4-4.7-11.4-1-4.3-1.5-8.8-1.4-13.2.1-11.5 3-19 8.7-22.7 5.6-3.6 13.3-3.6 23 0 4.4 1.6 8.6 3.7 12.5 6.3 7.7 5.1 13.4 12.6 16.2 21.4 1.5 4.9 2.3 10 2.1 15.1v3.3l-19.5-7.3c.1-5.5-.7-10.1-2.4-13.7s-4.4-6.2-8.4-7.7c-2.3-.8-4.1-1.1-5.7-.9-1.4.1-2.7.7-3.7 1.7s-1.6 2.3-1.9 3.7c-.2 1.4-.4 3.1-.4 4.7-.1 3.4.6 6.7 1.9 9.8 1.3 2.9 4.1 6.2 8.3 9.9l15.6 13.6c3.4 2.9 6.5 6.2 9.4 9.6 2.3 2.8 4.2 5.8 5.8 9 1.4 2.9 2.4 6 2.9 9.2.6 3.3.8 6.7.7 10.1-.2 12.3-3.4 20.1-9.7 23.4-6.3 3.3-14.9 2.9-25.9-1.1-11-4.1-19.7-10.2-24.6-17.8-4.9-7.6-7.2-16.7-7.1-27.5l.1-4.7 20.4 7.5v3.4z" class="st8"/><path d="M69.6 106.4c-.1 2.5.1 5.1.4 7.6.3 2.2 1 4.4 2 6.4 1.1 2 2.5 3.7 4.1 5.1 1.9 1.6 4.2 2.9 6.6 3.8 3.1 1.1 5.9 1 8.4-.4s3.8-4.6 3.9-9.4c0-2.4-.2-4.8-.8-7.1-.6-2.2-1.6-4.4-3-6.3-1.6-2.3-3.5-4.4-5.5-6.2-2.3-2.1-5.1-4.4-8.5-7-4.1-3.1-8-6.4-11.7-10-3.1-3.1-5.9-6.6-8.2-10.3-2.2-3.5-3.8-7.4-4.7-11.4-1-4.3-1.5-8.8-1.4-13.2.1-11.5 3-19 8.7-22.6s13.3-3.6 23 0c4.4 1.6 8.6 3.8 12.5 6.4 3.8 2.5 7.1 5.6 9.8 9.2 2.8 3.7 4.9 7.8 6.4 12.2 1.5 4.9 2.3 10 2.1 15.1v3.3l-19.5-7.2c.1-5.5-.7-10.1-2.4-13.7s-4.4-6.1-8.4-7.6c-2.3-.8-4.2-1.1-5.7-.9-1.4.1-2.7.7-3.7 1.7s-1.6 2.3-1.9 3.7c-.4 1.6-.6 3.2-.6 4.8-.1 3.4.6 6.7 1.9 9.8 1.3 2.9 4.1 6.2 8.4 9.9l15.6 13.6c3.4 2.9 6.6 6.1 9.4 9.6 2.3 2.8 4.2 5.8 5.8 9 1.4 2.9 2.4 6 2.9 9.2.5 3.3.8 6.7.7 10.1-.1 12.2-3.3 20-9.6 23.4-6.3 3.3-14.9 2.9-25.9-1.1-11.5-4.2-19.7-10.2-24.6-17.8-4.8-7.6-7.2-16.7-7.1-27.5v-4.7l20.4 7.5.2 3z" class="st9"/><path d="M43.5 173.4c-4.8-1.6-9.6-3.5-14.2-5.7-1.4-.6-1.8-1.8-1.2-3.1l2.5-5.3 4.5 2-1.8 4.1c3.5 1.5 5.3 2.3 8.8 3.6.6-1.5.9-2.3 1.4-3.9-3.3-3.4-6.4-7-9.4-10.8-.6-.8-.6-1.4-.2-2.4 1-2.1 1.5-3.2 2.5-5.3.6-1.3 1.7-1.7 2.9-1.2 4 1.8 8 3.5 12.2 4.9 1.2.4 1.7 1.4 1.2 2.8l-1.7 5.2-4.4-1.6 1.4-3.8c-3.2-1.2-4.8-1.8-8-3.2l-1.5 3.4c3 3.7 6.1 7.1 9.4 10.5.6.6.8 1.5.4 2.3l-2 6c-.2 1.5-1.4 2-2.8 1.5zm22.6-14.6l-4.6 19.9-4.9-1.2c1.7-6.6 3.4-13.1 5.1-19.7-2.6-.7-4-1.1-6.6-1.9.4-1.5.7-2.3 1.2-3.8 5.6 1.7 11.4 3.2 17.2 4.2-.2 1.5-.4 2.3-.7 3.9-2.7-.5-4-.8-6.7-1.4zm6.4 22.1c1.3-8.1 2.6-16.1 3.9-24.1l4.3.6c-1 8.1-2.1 16.1-3.2 24.2l-5-.7zm28.4 2.2c-5.4-.1-10.6-.3-16-.7-1.5-.1-2.2-1.1-2.1-2.5.7-6.6 1.3-13.1 2-19.7.1-1.4.9-2.2 2.2-2.1 4.5.5 9.1.6 13.7.5 1.3 0 2.1.8 2.1 2.3 0 2.5 0 3.7.1 6.2h-4.6v-4.6c-3.7 0-5.6-.1-9.2-.3-.4 5.5-.8 11.1-1.2 16.6 4.1.3 6.2.3 10.3.4v-4.8h4.8c0 2.6 0 3.9.1 6.5.2 1.3-.7 2.1-2.2 2.2zm21.2-1.5c-4-3.7-5.9-5.6-9.5-9.5.3 4.1.5 6.2.8 10.4-2 .1-3 .2-5 .3l-1.2-24.3 4.3-.3c.3 4 .4 5.9.8 9.8 2.5-4.1 3.6-6.2 5.7-10.5 2.1-.2 3.2-.4 5.2-.7v.2c-2.1 4.2-4.4 8.5-7 12.5 3.9 3.9 7.9 7.4 12 11v.2l-6.1.9zm8.8-1.3c-1.4-8-2.9-16-4.4-24 5.2-.9 10.3-2.2 15.3-3.7l1.1 3.8c-4.5 1.3-6.8 1.9-11.3 2.9.5 2.4.8 3.6 1.3 6 3.9-.8 5.7-1.3 9.5-2.4l1 3.6c-3.9 1.1-5.9 1.6-9.8 2.4l1.4 6.4c5.1-1.1 7.7-1.7 12.7-3.2l1.1 3.8c-5.9 1.8-11.9 3.2-17.9 4.4zm36.5-11.1c-4.7-2.6-7-3.9-11.4-6.8l-.9-2.4c2.7-1 4.1-1.5 6.8-2.7-1.2-2.7-1.7-4.1-2.9-6.8-3.2 1.4-4.8 2-8.2 3.2 2.3 6.4 4.6 12.8 6.9 19.3l-4.8 1.7c-2.5-7.7-5-15.5-7.5-23.2 4.9-1.6 9.6-3.4 14.3-5.5 1.2-.5 2.2 0 2.8 1.2l4.2 9.1c.6 1.3.2 2.4-1.1 3l-3.5 1.5c4.2 2.4 6.3 3.6 10.8 5.7l.1.2-5.6 2.5zm-153.2-7.8l-2-6.1-6.2-1.7 5.2-3.8-.2-6.5 5.2 3.8 6-2.2-1.9 6.1 4 5.1h-6.5l-3.6 5.3zm179.5-8.3l-6.1 2.1-1.8 6.2-3.8-5.2-6.4.2 3.8-5.2-2.2-6 6.1 1.9 5.1-4v6.5l5.3 3.5z" class="st10"/></svg>