<svg id="图层_1" data-name="图层 1" xmlns="http://www.w3.org/2000/svg" width="5.5in" height="5.5in" viewBox="0 0 396.7 396.9"><title>Artboard 1 副本</title><rect width="396.7" height="396.87" fill="#221e1f"/><path d="M198.7,196.6a93.9,93.9,0,0,0,.9,15.4,38.1,38.1,0,0,0,4.1,13,34.4,34.4,0,0,0,8.3,10.4,42.2,42.2,0,0,0,13.2,7.7c6.3,2.3,12,2.1,17.2-.7s7.7-9.2,7.9-19.1a50.1,50.1,0,0,0-1.6-14.4,41.5,41.5,0,0,0-5.9-12.7,70,70,0,0,0-11.2-12.6c-4.6-4.3-10.3-9.1-17.1-14.3A216.7,216.7,0,0,1,191,148.9,111.4,111.4,0,0,1,174.6,128a79.4,79.4,0,0,1-9.5-23.2,102.9,102.9,0,0,1-2.7-26.7c.4-23.3,6.4-38.6,17.8-45.8s27-7.1,46.6.2a123.1,123.1,0,0,1,25.3,13,85.8,85.8,0,0,1,19.8,18.7,83.7,83.7,0,0,1,12.7,24.7,92.9,92.9,0,0,1,4.2,30.6v6.6l-39.4-14.8c.2-11.2-1.4-20.5-4.7-27.8s-9-12.5-17-15.5c-4.6-1.7-8.4-2.4-11.5-2a13.1,13.1,0,0,0-7.4,3.4,15,15,0,0,0-3.8,7.3,39.5,39.5,0,0,0-1.2,9.9,47.5,47.5,0,0,0,3.6,19.8c2.6,5.9,8.2,12.6,16.9,20.1l31.4,27.7a155.3,155.3,0,0,1,19,19.6,97.7,97.7,0,0,1,11.6,18.3,69.2,69.2,0,0,1,5.8,18.6,121.1,121.1,0,0,1,1.4,20.4q-.7,37.3-19.8,47.2t-52.4-2.6q-34.9-13.1-49.6-36.1t-14.1-55.8l.2-9.5,41.2,15.4Z" fill="#221e1f"/><path d="M192.3,198.7a93.9,93.9,0,0,0,.9,15.4,38.1,38.1,0,0,0,4.1,13,34.4,34.4,0,0,0,8.3,10.4,42,42,0,0,0,13.2,7.6c6.3,2.4,12,2.2,17.1-.7s7.8-9.2,8-19.1a49.8,49.8,0,0,0-1.6-14.3,43.2,43.2,0,0,0-6-12.7,73.6,73.6,0,0,0-11.1-12.7c-4.6-4.2-10.3-9-17.1-14.2A218.4,218.4,0,0,1,184.5,151a115.7,115.7,0,0,1-16.4-20.9,79.4,79.4,0,0,1-9.5-23.2,102.5,102.5,0,0,1-2.7-26.7q.6-34.9,17.8-45.8c11.4-7.2,27-7.1,46.6.2a115,115,0,0,1,25.2,12.9,86.4,86.4,0,0,1,19.9,18.7A84.3,84.3,0,0,1,278.1,91a92.9,92.9,0,0,1,4.2,30.6v6.6l-39.4-14.8c.2-11.2-1.4-20.5-4.7-27.8s-9-12.5-17-15.5c-4.6-1.7-8.4-2.4-11.5-2a12.5,12.5,0,0,0-7.4,3.4,15,15,0,0,0-3.8,7.3,39.5,39.5,0,0,0-1.2,9.9,47.5,47.5,0,0,0,3.6,19.8c2.6,5.9,8.3,12.6,17,20.1l31.4,27.7a168.5,168.5,0,0,1,18.9,19.5,94,94,0,0,1,11.6,18.3,71.8,71.8,0,0,1,5.9,18.6,112.2,112.2,0,0,1,1.3,20.5q-.6,37.2-19.7,47.2c-12.7,6.6-30.1,5.8-52.4-2.6s-39.8-20.7-49.6-36.1-14.5-34-14.1-55.8l.2-9.5,41.1,15.4Z" fill="#393536"/><path d="M185.9,200.8a94.6,94.6,0,0,0,.9,15.4,38.8,38.8,0,0,0,4,13,37.7,37.7,0,0,0,8.4,10.4,40.9,40.9,0,0,0,13.2,7.6c6.3,2.4,12,2.1,17.1-.7s7.8-9.2,8-19.1a53.8,53.8,0,0,0-1.6-14.4,44.4,44.4,0,0,0-6-12.7,77.1,77.1,0,0,0-11.1-12.6c-4.7-4.3-10.4-9-17.2-14.2a216.7,216.7,0,0,1-23.5-20.4,116.4,116.4,0,0,1-16.5-20.9,82.2,82.2,0,0,1-9.5-23.2,102.5,102.5,0,0,1-2.7-26.7q.6-34.9,17.8-45.8c11.4-7.2,27-7.1,46.6.2A119.7,119.7,0,0,1,239,49.6,82.4,82.4,0,0,1,271.6,93a90.3,90.3,0,0,1,4.3,30.6l-.2,6.6-39.4-14.7c.2-11.3-1.4-20.5-4.7-27.9s-9-12.4-17-15.4c-4.6-1.7-8.4-2.4-11.5-2a12.2,12.2,0,0,0-7.4,3.4,15,15,0,0,0-3.8,7.3,39.5,39.5,0,0,0-1.2,9.9,47.6,47.6,0,0,0,3.7,19.8c2.5,5.9,8.2,12.6,16.9,20.1l31.4,27.6a155.3,155.3,0,0,1,19,19.6,92.8,92.8,0,0,1,11.6,18.3,69.4,69.4,0,0,1,5.9,18.6,110.6,110.6,0,0,1,1.3,20.4c-.4,24.8-7,40.6-19.6,47.2s-30.2,5.8-52.5-2.5-39.8-20.7-49.6-36.1-14.5-34-14.1-55.7v-9.6L186,193.9Z" fill="#504d4e"/><path d="M179.4,202.9a107.3,107.3,0,0,0,.9,15.4,41.3,41.3,0,0,0,4.1,13,37.3,37.3,0,0,0,8.3,10.4,42.6,42.6,0,0,0,13.3,7.6c6.3,2.3,12,2.1,17.1-.7s7.8-9.2,8-19.1a53.8,53.8,0,0,0-1.6-14.4,44.4,44.4,0,0,0-6-12.7,73.5,73.5,0,0,0-11.2-12.6c-4.6-4.3-10.3-9-17.1-14.2a218.4,218.4,0,0,1-23.6-20.4,113,113,0,0,1-16.5-20.9,85.3,85.3,0,0,1-9.5-23.2,102.5,102.5,0,0,1-2.7-26.7c.4-23.3,6.3-38.5,17.7-45.8s27-7.2,46.7.2a119.7,119.7,0,0,1,25.2,12.9A83.5,83.5,0,0,1,265.2,95a93.1,93.1,0,0,1,4.2,30.7v6.5l-39.5-14.7c.2-11.2-1.4-20.5-4.7-27.8s-9-12.5-17-15.5c-4.6-1.7-8.4-2.3-11.5-1.9a12.2,12.2,0,0,0-7.4,3.4,15,15,0,0,0-3.8,7.3,38.9,38.9,0,0,0-1.2,9.9,47.6,47.6,0,0,0,3.7,19.8c2.6,5.9,8.2,12.6,16.9,20l31.5,27.7a168.5,168.5,0,0,1,18.9,19.5,96.6,96.6,0,0,1,11.7,18.3,69.2,69.2,0,0,1,5.8,18.6,111.5,111.5,0,0,1,1.4,20.4c-.4,24.9-7,40.6-19.6,47.3s-30.2,5.8-52.5-2.5-39.8-20.7-49.6-36.1-14.5-34-14.2-55.7l.2-9.6L179.6,196Z" fill="#676465"/><path d="M173,205a94.6,94.6,0,0,0,.9,15.4,41.3,41.3,0,0,0,4.1,13,37.3,37.3,0,0,0,8.3,10.4,42.6,42.6,0,0,0,13.3,7.6c6.3,2.3,12,2.1,17.1-.8s7.8-9.2,8-19.1a49.7,49.7,0,0,0-1.7-14.3,40.8,40.8,0,0,0-6-12.7,69.6,69.6,0,0,0-11.1-12.6c-4.6-4.3-10.4-9-17.2-14.2a228.3,228.3,0,0,1-23.5-20.4,113,113,0,0,1-16.5-20.9,83.1,83.1,0,0,1-9.6-23.1,103.7,103.7,0,0,1-2.7-26.8c.4-23.3,6.3-38.5,17.7-45.8s27-7.2,46.6.1A128,128,0,0,1,226,53.7a82,82,0,0,1,19.8,18.7,84.2,84.2,0,0,1,12.9,24.7,92.9,92.9,0,0,1,4.2,30.6v6.6l-39.5-14.7c.2-11.2-1.4-20.5-4.7-27.8s-9-12.5-17-15.5c-4.6-1.7-8.4-2.3-11.5-1.9a12.2,12.2,0,0,0-7.4,3.4,15,15,0,0,0-3.8,7.3,38.9,38.9,0,0,0-1.2,9.9,46.8,46.8,0,0,0,3.7,19.7c2.6,6,8.2,12.7,16.9,20.1l31.5,27.7a148.6,148.6,0,0,1,19,19.5,95.2,95.2,0,0,1,11.6,18.2,67.7,67.7,0,0,1,5.9,18.7,110.2,110.2,0,0,1,1.4,20.4c-.4,24.8-6.9,40.6-19.6,47.2s-30.2,5.9-52.5-2.4S155.8,263.4,146,248s-14.6-34-14.2-55.7v-9.6l41.2,15.4Z" fill="#7e7c7d"/><path d="M166.6,207.1a94.6,94.6,0,0,0,.9,15.4,38.8,38.8,0,0,0,4.1,13,37,37,0,0,0,8.3,10.4,43.4,43.4,0,0,0,13.3,7.6c6.3,2.3,12,2,17.1-.8s7.8-9.2,7.9-19.1a50.1,50.1,0,0,0-1.6-14.4,44.4,44.4,0,0,0-6-12.7,73.5,73.5,0,0,0-11.2-12.6c-4.6-4.2-10.3-9-17.1-14.1a243.1,243.1,0,0,1-23.6-20.4,113,113,0,0,1-16.5-20.9,83.1,83.1,0,0,1-9.6-23.1,103.7,103.7,0,0,1-2.7-26.8q.6-34.8,17.7-45.8c11.4-7.2,27-7.2,46.6.1a118.1,118.1,0,0,1,25.3,12.9,83.5,83.5,0,0,1,32.7,43.3,92.9,92.9,0,0,1,4.2,30.6v6.6l-39.5-14.7c.2-11.2-1.4-20.4-4.7-27.7s-9-12.5-17-15.5c-4.6-1.7-8.4-2.3-11.5-1.9a12.7,12.7,0,0,0-7.4,3.3,15.4,15.4,0,0,0-3.8,7.4,43.1,43.1,0,0,0-1.2,9.8,47,47,0,0,0,3.7,19.8c2.6,6,8.3,12.7,17,20.1l31.5,27.6A168.5,168.5,0,0,1,242.3,184,96.6,96.6,0,0,1,254,202.3a69.4,69.4,0,0,1,5.9,18.6,121.1,121.1,0,0,1,1.4,20.4c-.4,24.9-6.9,40.6-19.6,47.3s-30.2,5.8-52.5-2.5-39.8-20.6-49.6-36-14.6-33.9-14.3-55.7l.2-9.6,41.2,15.4Z" fill="#959394"/><path d="M160.1,209.2a106.8,106.8,0,0,0,1,15.4,38.8,38.8,0,0,0,4.1,13,37,37,0,0,0,8.3,10.4,41.3,41.3,0,0,0,13.3,7.5c6.3,2.4,12,2.1,17.1-.7s7.8-9.2,7.9-19.1a50.1,50.1,0,0,0-1.6-14.4,44.4,44.4,0,0,0-6-12.7A78.1,78.1,0,0,0,193,196c-4.6-4.2-10.4-9-17.2-14.2a241.2,241.2,0,0,1-23.6-20.3,113,113,0,0,1-16.5-20.9,83.1,83.1,0,0,1-9.6-23.1,107.9,107.9,0,0,1-2.7-26.7q.4-34.9,17.7-45.9t46.6.1A120.4,120.4,0,0,1,213,57.9a82.4,82.4,0,0,1,32.7,43.3,95.6,95.6,0,0,1,4.3,30.6v6.6l-39.5-14.7c.1-11.2-1.4-20.5-4.8-27.8s-9-12.4-17-15.4c-4.6-1.7-8.4-2.4-11.5-2a12.8,12.8,0,0,0-7.4,3.4,15.4,15.4,0,0,0-3.8,7.4,43.1,43.1,0,0,0-1.2,9.8,47,47,0,0,0,3.7,19.8c2.6,6,8.3,12.6,17,20.1l31.5,27.6a155.1,155.1,0,0,1,19,19.5,96,96,0,0,1,11.7,18.2,75.8,75.8,0,0,1,5.9,18.6,121.6,121.6,0,0,1,1.4,20.5q-.6,37.2-19.6,47.2t-52.5-2.4c-23.2-8.6-39.8-20.6-49.6-36s-14.6-33.9-14.3-55.7V187l41.3,15.3Z" fill="#acabac"/><path d="M153.7,211.3a94.6,94.6,0,0,0,.9,15.4,38.9,38.9,0,0,0,4.2,13,35.2,35.2,0,0,0,8.3,10.3,41.5,41.5,0,0,0,13.3,7.6c6.3,2.4,12,2.1,17.1-.8s7.8-9.2,7.9-19.1a53.1,53.1,0,0,0-1.6-14.3,42,42,0,0,0-6-12.7,83.2,83.2,0,0,0-11.2-12.6c-4.7-4.3-10.4-9-17.2-14.2a229.9,229.9,0,0,1-23.6-20.3,113,113,0,0,1-16.5-20.9,80.2,80.2,0,0,1-9.6-23.1,102.3,102.3,0,0,1-2.8-26.7q.4-35,17.6-45.9c11.5-7.2,27-7.2,46.7.1a124.3,124.3,0,0,1,25.2,12.8,84.3,84.3,0,0,1,19.9,18.7,82.4,82.4,0,0,1,12.9,24.6,95.6,95.6,0,0,1,4.3,30.6v6.6l-39.5-14.6c.1-11.2-1.4-20.5-4.8-27.8a28.5,28.5,0,0,0-17-15.4c-4.6-1.7-8.4-2.4-11.5-2a12.8,12.8,0,0,0-7.4,3.4,15.4,15.4,0,0,0-3.8,7.4,43.1,43.1,0,0,0-1.2,9.8,47,47,0,0,0,3.7,19.8c2.6,5.9,8.3,12.6,17,20.1l31.6,27.6a160.7,160.7,0,0,1,18.9,19.4,93.5,93.5,0,0,1,11.7,18.3A66.1,66.1,0,0,1,247,225a109.9,109.9,0,0,1,1.5,20.4q-.6,37.2-19.6,47.3t-52.5-2.4c-23.2-8.6-39.8-20.6-49.6-36s-14.7-33.9-14.3-55.7v-9.5l41.2,15.3Z" fill="#c3c2c3"/><path d="M147.3,213.4a94.6,94.6,0,0,0,.9,15.4,38.9,38.9,0,0,0,4.2,13,35.2,35.2,0,0,0,8.3,10.3,41.5,41.5,0,0,0,13.3,7.6c6.3,2.3,12,2.1,17.1-.8s7.8-9.2,7.9-19.1a49.9,49.9,0,0,0-1.7-14.4,42.7,42.7,0,0,0-6-12.6,66.8,66.8,0,0,0-11.2-12.6A214.1,214.1,0,0,0,162.9,186a229.9,229.9,0,0,1-23.6-20.3,113,113,0,0,1-16.5-20.9,80.7,80.7,0,0,1-9.6-23.1A106.8,106.8,0,0,1,110.4,95q.4-34.9,17.6-45.9c11.4-7.2,27-7.2,46.6.1A113.4,113.4,0,0,1,199.9,62a81.9,81.9,0,0,1,32.8,43.3,92.9,92.9,0,0,1,4.3,30.6v6.6l-39.5-14.7c.2-11.2-1.4-20.4-4.8-27.7s-9-12.5-17-15.5c-4.6-1.7-8.4-2.3-11.5-1.9a12.5,12.5,0,0,0-7.4,3.4,14.5,14.5,0,0,0-3.8,7.4,43.1,43.1,0,0,0-1.2,9.8,47,47,0,0,0,3.8,19.8c2.6,5.9,8.2,12.6,16.9,20L204,170.7a162.1,162.1,0,0,1,19,19.5,96,96,0,0,1,11.7,18.2,68.2,68.2,0,0,1,5.9,18.6,111.3,111.3,0,0,1,1.5,20.4c-.4,24.9-6.9,40.6-19.6,47.3s-30.1,5.9-52.4-2.3-39.9-20.6-49.8-36-14.6-33.9-14.3-55.6l.2-9.6,41.2,15.2Z" fill="#dadadb"/><path d="M140.9,215.5a94.6,94.6,0,0,0,.9,15.4,39.9,39.9,0,0,0,4.1,12.9,36.3,36.3,0,0,0,8.4,10.4,41.5,41.5,0,0,0,13.3,7.6c6.3,2.3,12,2,17.1-.8s7.7-9.3,7.9-19.1a53.7,53.7,0,0,0-1.7-14.4,44.4,44.4,0,0,0-6-12.7,78.1,78.1,0,0,0-11.2-12.6c-4.7-4.2-10.4-8.9-17.2-14.1a229.9,229.9,0,0,1-23.6-20.3,109.5,109.5,0,0,1-16.6-20.9,80.7,80.7,0,0,1-9.6-23.1,106.8,106.8,0,0,1-2.8-26.7q.4-34.9,17.6-45.8t46.6-.1a118.1,118.1,0,0,1,25.3,12.9,81.9,81.9,0,0,1,19.9,18.6,84.8,84.8,0,0,1,12.9,24.6,92.9,92.9,0,0,1,4.3,30.6v6.6l-39.5-14.6c.2-11.2-1.4-20.5-4.8-27.8s-9-12.4-17-15.4c-4.6-1.7-8.5-2.3-11.5-1.9a11.9,11.9,0,0,0-7.4,3.4,14.5,14.5,0,0,0-3.8,7.4,43.1,43.1,0,0,0-1.2,9.8,47,47,0,0,0,3.8,19.8c2.6,5.9,8.2,12.6,17,20l31.5,27.6a163.8,163.8,0,0,1,19.1,19.4,93.5,93.5,0,0,1,11.7,18.3,73.2,73.2,0,0,1,5.9,18.6,110.2,110.2,0,0,1,1.4,20.4q-.4,37.2-19.4,47.3t-52.5-2.3q-34.9-12.9-49.8-36c-9.8-15.3-14.6-33.9-14.3-55.6v-9.6l41.2,15.2Z" fill="#f1f1f2"/><path d="M88,351.2a296.1,296.1,0,0,1-28.7-11.5c-2.8-1.2-3.7-3.6-2.5-6.2l5.1-10.8,9.1,4.1-3.6,8.3c7.1,3.1,10.7,4.6,17.9,7.2,1.2-3.1,1.8-4.7,2.9-7.8a279.7,279.7,0,0,1-19-21.8c-1.3-1.6-1.2-2.9-.4-4.8,2.1-4.3,3.1-6.4,5.1-10.7,1.2-2.6,3.4-3.5,5.8-2.4a247.7,247.7,0,0,0,24.6,9.9c2.4.8,3.4,2.9,2.5,5.6l-3.5,10.6-8.9-3.2,2.8-7.6c-6.5-2.4-9.7-3.7-16.1-6.5l-3,6.8a274.7,274.7,0,0,0,19.1,21.2,4,4,0,0,1,.9,4.7l-4,12.2C93.2,351.2,90.9,352.2,88,351.2Z" fill="#fff"/><path d="M133.8,321.5l-9.3,40.3-10-2.5c3.4-13.3,6.9-26.6,10.4-39.9-5.3-1.5-8-2.2-13.3-3.9.9-3,1.4-4.6,2.4-7.6a315.7,315.7,0,0,0,34.8,8.6c-.5,3.1-.8,4.7-1.4,7.9C141.9,323.3,139.2,322.8,133.8,321.5Z" fill="#fff"/><path d="M146.8,366.2c2.6-16.3,5.3-32.5,7.9-48.7l8.7,1.3c-2.1,16.3-4.3,32.6-6.4,48.9Z" fill="#fff"/><path d="M204.2,370.7c-10.9-.2-21.5-.6-32.3-1.4-3-.3-4.5-2.2-4.2-5,1.4-13.3,2.7-26.6,4.1-39.9.3-2.9,1.9-4.4,4.4-4.2a233.3,233.3,0,0,0,27.7,1.1c2.6,0,4.2,1.7,4.3,4.6,0,5,.1,7.5.2,12.5-3.7.1-5.6.1-9.3,0,0-3.7,0-5.5.1-9.3-7.5,0-11.3-.2-18.7-.7-.9,11.2-1.7,22.4-2.5,33.6,8.3.6,12.5.7,20.8.8.1-3.9.1-5.9.1-9.8h9.8c.1,5.3.1,7.9.2,13.1C209,368.9,207.2,370.6,204.2,370.7Z" fill="#fff"/><path d="M247.1,367.8c-8.1-7.5-12-11.3-19.3-19.2.7,8.4,1,12.6,1.6,21-4.1.3-6.1.5-10.2.6L216.8,321l8.8-.6c.6,8,.9,12,1.6,19.9,5-8.4,7.3-12.6,11.6-21.2,4.3-.5,6.4-.8,10.6-1.5v.4c-4.3,8.6-9,17.2-14.1,25.3,7.9,7.8,15.9,15,24.3,22.2a.8.8,0,0,0,.1.4Z" fill="#fff"/><path d="M264.9,365c-2.9-16.2-5.9-32.4-8.9-48.5a297.3,297.3,0,0,0,31-7.4l2.3,7.6c-9.1,2.7-13.7,3.9-22.9,5.9,1,4.8,1.6,7.2,2.6,12.1,7.8-1.7,11.6-2.6,19.3-4.8l2.1,7.3c-7.9,2.2-11.9,3.2-19.8,4.9l2.8,13c10.3-2.2,15.5-3.5,25.7-6.5l2.2,7.6A344.6,344.6,0,0,1,264.9,365Z" fill="#fff"/><path d="M338.9,342.6c-9.6-5.2-14.2-7.9-23.1-13.7L314,324c5.5-2,8.2-3.1,13.7-5.4-2.4-5.5-3.5-8.3-5.9-13.8-6.5,2.8-9.8,4.1-16.5,6.5,4.7,13,9.4,26,14,39l-9.8,3.4c-5.1-15.6-10.2-31.3-15.2-46.9a281.8,281.8,0,0,0,28.9-11.1c2.4-1.1,4.5-.1,5.7,2.4l8.5,18.5c1.2,2.6.4,4.8-2.3,6l-7.1,3.1c8.5,4.9,12.8,7.2,21.8,11.6l.2.4Z" fill="#fff"/><polygon points="28.6 326.9 24.5 314.6 12 311 22.5 303.3 22.1 290.2 32.7 297.8 44.9 293.4 41 305.8 49 316.1 35.9 316.2 28.6 326.9" fill="#fff"/><polygon points="392.1 310.1 379.7 314.3 376.1 326.8 368.4 316.3 355.4 316.7 363 306.1 358.5 293.9 370.9 297.8 381.2 289.8 381.3 302.9 392.1 310.1" fill="#fff"/></svg>
