<svg xmlns="http://www.w3.org/2000/svg" width="16" height="16" viewBox="0 0 16 16"><path fill="#221e1f" d="M0 0h16v16.01H0z"/><path fill="#221e1f" d="M8 7.9c0 .2 0 .5.1.6a1.3 1.3 0 0 0 .1.6l.4.4.5.3h.7c.2-.1.3-.4.3-.8a1.3 1.3 0 0 0-.1-.6c0-.2-.1-.3-.2-.5l-.5-.5-.6-.6-1-.8-.7-.8a2.9 2.9 0 0 1-.3-1 2 2 0 0 1-.1-1.1c0-.9.2-1.5.7-1.8a1.9 1.9 0 0 1 1.8 0l1.1.5a6 6 0 0 1 .8.8 3.1 3.1 0 0 1 .5 1 2.5 2.5 0 0 1 .1 1.2v.3l-1.5-.6a3.1 3.1 0 0 0-.2-1.1 2.3 2.3 0 0 0-.7-.7c-.2 0-.4-.1-.5 0h-.3a.4.4 0 0 0-.1.3c-.1.1-.1.2-.1.4a2.4 2.4 0 0 0 .2.8A3.3 3.3 0 0 0 9 5l1.3 1.1.8.8.4.7a2.6 2.6 0 0 1 .3.8v.8c0 1-.3 1.7-.8 1.9a2.2 2.2 0 0 1-2.1-.1 3.8 3.8 0 0 1-2-1.4 3.6 3.6 0 0 1-.5-2.3V7l1.6.6z"/><path fill="#393536" d="M7.8 8v.6a1.4 1.4 0 0 0 .2.6c0 .1.2.3.3.4l.5.3h.7a1 1 0 0 0 .3-.8v-.6L9.5 8l-.4-.5-.7-.6-1-.8-.6-.9a3.6 3.6 0 0 1-.4-.9 3.7 3.7 0 0 1-.1-1.1c0-.9.2-1.5.7-1.8a2.1 2.1 0 0 1 1.9 0 3.1 3.1 0 0 1 1 .5 3 3 0 0 1 .8.8 3.1 3.1 0 0 1 .5 1 3.7 3.7 0 0 1 .2 1.2v.3l-1.6-.6a3.7 3.7 0 0 0-.2-1.2 1.4 1.4 0 0 0-.7-.6h-.4c-.2.1-.3.1-.3.2s-.2.2-.2.3v.4a1.1 1.1 0 0 0 .1.8 2.3 2.3 0 0 0 .7.8l1.3 1.1.7.8.5.7a2.4 2.4 0 0 1 .2.8 1.9 1.9 0 0 1 .1.8 2 2 0 0 1-.8 1.9 2.6 2.6 0 0 1-2.1-.1 3.2 3.2 0 0 1-2-1.5 3.8 3.8 0 0 1-.6-2.2v-.5l1.7.6z"/><path fill="#504d4e" d="M7.5 8.1v.6c.1.2.1.4.2.5l.3.5.6.3a.6.6 0 0 0 .7-.1c.2-.1.3-.3.3-.7a1.3 1.3 0 0 0-.1-.6.8.8 0 0 0-.2-.5l-.5-.5-.7-.6-.9-.8-.7-.9a3.6 3.6 0 0 1-.4-.9c0-.3-.1-.7-.1-1.1a2.2 2.2 0 0 1 .7-1.8 2.1 2.1 0 0 1 1.9 0 3.1 3.1 0 0 1 1 .5 2 2 0 0 1 .8.8c.3.2.4.6.6.9a5.3 5.3 0 0 1 .1 1.3v.2l-1.6-.5a2.2 2.2 0 0 0-.2-1.2.9.9 0 0 0-.6-.6h-.5l-.3.1c-.1 0-.1.1-.2.3v.4a2.5 2.5 0 0 0 .1.8l.7.8 1.3 1.1a6 6 0 0 1 .8.8 2.5 2.5 0 0 1 .4.7l.3.8v.8a2 2 0 0 1-.8 1.9 2.6 2.6 0 0 1-2.1-.1 4.6 4.6 0 0 1-2-1.5 3.8 3.8 0 0 1-.6-2.2v-.4l1.7.6z"/><path fill="#676465" d="M7.2 8.2a1.3 1.3 0 0 0 .1.6 4.3 4.3 0 0 0 .1.5l.4.4a1 1 0 0 0 .5.4H9c.2-.1.3-.3.3-.7v-.7L9 8.2a1 1 0 0 0-.4-.5l-.7-.6-1-.8a4.7 4.7 0 0 1-.6-.9 3.6 3.6 0 0 1-.4-.9 3.7 3.7 0 0 1-.1-1.1c0-.9.2-1.6.7-1.8a2.1 2.1 0 0 1 1.9 0l1 .5a2.7 2.7 0 0 1 .8.7 4.7 4.7 0 0 1 .5 1 5.1 5.1 0 0 1 .2 1.3v.2l-1.6-.6a3.6 3.6 0 0 0-.2-1.1 1.3 1.3 0 0 0-.7-.6h-.8c0 .1-.1.2-.1.3a.8.8 0 0 0-.1.4 1.9 1.9 0 0 0 .2.8 1.7 1.7 0 0 0 .7.8l1.2 1.2a3 3 0 0 1 .8.8l.5.7a1.9 1.9 0 0 1 .2.7c0 .3.1.6.1.9s-.3 1.6-.8 1.9a3.4 3.4 0 0 1-2.2-.1 4.6 4.6 0 0 1-2-1.5 5.1 5.1 0 0 1-.5-2.2v-.4l1.6.6z"/><path fill="#7e7c7d" d="M7 8.3v.6a.8.8 0 0 0 .2.5l.3.4a.7.7 0 0 0 .6.3h.6a.9.9 0 0 0 .4-.8 4.3 4.3 0 0 0-.1-.5l-.2-.6c-.2-.1-.3-.3-.5-.5l-.7-.5-.9-.9a2.7 2.7 0 0 1-.7-.8 3.6 3.6 0 0 1-.4-.9 4.1 4.1 0 0 1-.1-1.1 2.3 2.3 0 0 1 .7-1.9 2.1 2.1 0 0 1 1.9 0l1 .6a2.7 2.7 0 0 1 .8.7 3.1 3.1 0 0 1 .5 1 2.5 2.5 0 0 1 .2 1.2v.3L9 4.8a2 2 0 0 0-.2-1.1.9.9 0 0 0-.7-.6h-.7c-.1.1-.2.2-.2.3v.4a1.9 1.9 0 0 0 .1.8 1.7 1.7 0 0 0 .7.8l1.3 1.1.7.8a3.5 3.5 0 0 1 .5.8 1.9 1.9 0 0 1 .2.7 2.5 2.5 0 0 1 .1.8 2.2 2.2 0 0 1-.8 2 3.1 3.1 0 0 1-2.1-.1 4.6 4.6 0 0 1-2-1.5 4 4 0 0 1-.6-2.2v-.4L7 8z"/><path fill="#959394" d="M6.7 8.3a1.5 1.5 0 0 0 .1.7.9.9 0 0 0 .1.5.8.8 0 0 0 .4.4l.5.3a.9.9 0 0 0 .7 0c.2-.1.3-.4.3-.8a1.3 1.3 0 0 0-.1-.6 1.7 1.7 0 0 0-.2-.5L8 7.8c-.1-.2-.4-.3-.6-.6a3.9 3.9 0 0 1-1-.8 2.7 2.7 0 0 1-.7-.8 2.9 2.9 0 0 1-.3-1 3 3 0 0 1-.2-1c.1-1 .3-1.6.8-1.9a1.9 1.9 0 0 1 1.8 0l1.1.5.8.8a9.3 9.3 0 0 1 .5 1 2.5 2.5 0 0 1 .1 1.2v.3l-1.6-.6a2 2 0 0 0-.1-1.1 1.3 1.3 0 0 0-.7-.6h-.8a.4.4 0 0 0-.1.3.6.6 0 0 0-.1.4 1.9 1.9 0 0 0 .2.8l.6.8L9 6.6l.8.8.4.8c.2.2.2.4.3.7v.8c0 1-.2 1.7-.8 1.9a2.2 2.2 0 0 1-2.1-.1 3.8 3.8 0 0 1-2-1.4 3.4 3.4 0 0 1-.5-2.3v-.3l1.6.6z"/><path fill="#acabac" d="M6.5 8.4v.7l.2.5.3.4.5.3h.7c.2-.1.3-.4.3-.8v-.6l-.3-.5-.4-.5-.7-.6a3.9 3.9 0 0 1-1-.8l-.6-.8a3 3 0 0 1-.4-1 3.4 3.4 0 0 1-.1-1c0-1 .2-1.6.7-1.9a2.1 2.1 0 0 1 1.9 0l1 .5a3 3 0 0 1 .8.8 3.1 3.1 0 0 1 .5 1 4.3 4.3 0 0 1 .2 1.2v.3L8.5 5a3.1 3.1 0 0 0-.2-1.1 1.6 1.6 0 0 0-.7-.7c-.2 0-.3-.1-.5 0h-.3c0 .1-.1.2-.1.3s-.1.3-.1.4a1.9 1.9 0 0 0 .2.8 2.3 2.3 0 0 0 .7.8l1.2 1.2.8.8.5.7a2.4 2.4 0 0 1 .2.8 1.9 1.9 0 0 1 .1.8 2 2 0 0 1-.8 1.9 2.2 2.2 0 0 1-2.1-.1 3.4 3.4 0 0 1-2-1.4 4.4 4.4 0 0 1-.6-2.3v-.4l1.7.7z"/><path fill="#c3c2c3" d="M6.2 8.5v.6c.1.2.1.4.2.6l.3.4.6.3H8a1 1 0 0 0 .3-.8 1.3 1.3 0 0 0-.1-.6c0-.2-.1-.3-.2-.5L7.5 8l-.7-.6a7.3 7.3 0 0 1-.9-.8l-.7-.8a4.2 4.2 0 0 1-.4-1 3.7 3.7 0 0 1-.1-1.1 2.2 2.2 0 0 1 .7-1.8 2.1 2.1 0 0 1 1.9 0 3.1 3.1 0 0 1 1 .5 3 3 0 0 1 .8.8 1.9 1.9 0 0 1 .5 1 2.2 2.2 0 0 1 .2 1.2v.3l-1.6-.6A2.2 2.2 0 0 0 8 3.9a1.1 1.1 0 0 0-.7-.6h-.4l-.3.2-.2.3v.4a2.2 2.2 0 0 0 .1.8l.7.8 1.3 1 .8.8a2.5 2.5 0 0 1 .4.7l.3.8v.8a2 2 0 0 1-.8 1.9 2.6 2.6 0 0 1-2.1-.1 3.8 3.8 0 0 1-2-1.4A4.4 4.4 0 0 1 4.5 8v-.4l1.7.6z"/><path fill="#dadadb" d="M5.9 8.6c0 .2.1.4.1.6a4.3 4.3 0 0 0 .1.5l.4.5.5.3a.6.6 0 0 0 .7-.1c.2-.1.3-.3.3-.7v-.6l-.3-.5a1 1 0 0 0-.4-.5l-.7-.6-1-.8a4.7 4.7 0 0 1-.6-.9 1.8 1.8 0 0 1-.4-.9 2 2 0 0 1-.1-1.1c0-.9.2-1.5.7-1.8A1.9 1.9 0 0 1 7 2l1.1.5.8.7a4.7 4.7 0 0 1 .5 1 5.1 5.1 0 0 1 .2 1.3v.2L8 5.2A3.7 3.7 0 0 0 7.8 4a1.3 1.3 0 0 0-.7-.6h-.5l-.3.2c-.1 0-.1.1-.1.3s-.1.2-.1.4a2.4 2.4 0 0 0 .2.8 2.3 2.3 0 0 0 .7.8l1.2 1a6 6 0 0 1 .8.8l.5.7a1.9 1.9 0 0 1 .2.8c0 .2.1.5.1.8s-.3 1.6-.8 1.9a2.6 2.6 0 0 1-2.1-.1 3.6 3.6 0 0 1-2-1.5 3.8 3.8 0 0 1-.6-2.2v-.4l1.6.6z"/><path fill="#f1f1f2" d="M5.7 8.7v.6a.8.8 0 0 0 .2.5l.3.5.6.3h.6c.3-.1.4-.3.4-.7a3.5 3.5 0 0 0-.1-.6.8.8 0 0 0-.2-.5L7 8.2l-.7-.6-.9-.8-.7-.9a3.6 3.6 0 0 1-.4-.9 3.7 3.7 0 0 1-.1-1.1c0-.9.2-1.5.7-1.8a2.1 2.1 0 0 1 1.9 0 3.1 3.1 0 0 1 1 .5 2.7 2.7 0 0 1 .8.7 4.7 4.7 0 0 1 .5 1 5.1 5.1 0 0 1 .2 1.3v.2l-1.6-.6a3.6 3.6 0 0 0-.2-1.1 1.1 1.1 0 0 0-.7-.6h-.4c-.2 0-.3.1-.3.2s-.2.1-.2.3v.3A1.9 1.9 0 0 0 6 5a1.8 1.8 0 0 0 .7.9L8 7a4.6 4.6 0 0 1 .7.7 3.5 3.5 0 0 1 .5.8 1.9 1.9 0 0 1 .2.7 2.8 2.8 0 0 1 .1.9 2 2 0 0 1-.8 1.9 3.1 3.1 0 0 1-2.1-.1 4.6 4.6 0 0 1-2-1.5A3.8 3.8 0 0 1 4 8.2v-.4l1.7.6z"/><path fill="#fff" d="M3.4 14.1l-1.2-.5c-.1 0-.1-.1-.1-.2s.2-.3.2-.5l.4.2v.3c.2.2.4.2.7.3v-.3l-.8-.9v-.2l.2-.4H3l1 .4c.1 0 .2.1.1.2v.5l-.4-.2.2-.3-.7-.2v.2a3.4 3.4 0 0 0 .8.9v.2l-.2.5zm1.8-1.2l-.3 1.6h-.4a9.4 9.4 0 0 1 .4-1.6l-.6-.2v-.3l1.4.4v.2zm.6 1.8a13.8 13.8 0 0 1 .3-2h.3c-.1.8-.1 1.1-.2 1.9zm2.3.2H6.8c-.2 0-.2-.1-.2-.2s.1-1 .2-1.6 0-.2.1-.2h1.2c.1 0 .1 0 .1.2v.5h-.3v-.4h-.8a5.7 5.7 0 0 1-.1 1.3h.9v-.4h.4v.6a.2.2 0 0 1-.2.2zm1.7-.2L9 14c0 .3.1.5.1.8h-.4a12.1 12.1 0 0 1-.1-1.9h.3a2.5 2.5 0 0 1 .1.8l.5-.8h.4a6 6 0 0 1-.6 1.1l1 .9h-.5zm.7-.1l-.3-1.9 1.2-.3v.3l-.9.2v.5l.8-.2v.3l-.8.2.2.5 1-.2c0 .1.1.2.1.3zm3-.9l-.9-.5V13l.6-.2-.3-.6-.7.3a9.4 9.4 0 0 1 .6 1.5l-.4.2c-.2-.8-.4-1.2-.6-1.9l1.2-.5h.2l.3.8c.1.1.1.2 0 .2h-.3l.8.5zm-12.3-.5l-.2-.5-.5-.2.4-.3v-.5l.4.3.5-.2-.1.5.3.4h-.6zm14.6-.7l-.5.2-.1.5-.3-.4h-.6l.3-.5-.1-.4.5.1.4-.3v.5z"/></svg>