<svg xmlns="http://www.w3.org/2000/svg" id="图层_1" viewBox="0 0 48 48" width="48" height="48"><style>.st0{fill:#221e1f}.st1{fill:#393536}.st2{fill:#504d4e}.st3{fill:#676465}.st4{fill:#7e7c7d}.st5{fill:#959394}.st6{fill:#acabac}.st7{fill:#c3c2c3}.st8{fill:#dadadb}.st9{fill:#f1f1f2}.st10{fill:#fff}</style><path d="M0 0h48v48H0V0z" class="st0"/><path d="M24.1 23.8c-.1.6 0 1.3.1 1.9 0 .6.2 1.1.5 1.6.2.5.6.9 1 1.3.5.4 1 .7 1.6.9.7.3 1.4.3 2.1-.1.7-.5 1.1-1.4 1-2.3 0-.6-.1-1.2-.2-1.7-.2-.5-.4-1.1-.7-1.6L28 22.2c-.6-.5-1.3-1.1-2.1-1.7-1-.7-2-1.6-2.8-2.5-.7-.8-1.4-1.6-1.9-2.5-.6-.9-1-1.8-1.2-2.8-.2-1.1-.3-2.1-.3-3.2.1-2.8.7-4.6 2.2-5.5 1.4-1 3.1-1 5.5-.1 1.1.4 2.1 1 3.1 1.6.9.7 1.7 1.4 2.4 2.2.7.9 1.2 1.9 1.5 3 .4 1.2.6 2.5.5 3.7v.7l-4.8-1.8c.1-1.1-.1-2.3-.5-3.3-.4-.9-1.2-1.6-2.1-1.9-.4 0-.9-.1-1.3-.1-.7.1-1.3.6-1.3 1.3-.1.4-.2.8-.1 1.2-.1.8.1 1.6.4 2.3.5 1 1.2 1.8 2 2.5l3.7 3.4c.8.7 1.6 1.5 2.3 2.3.6.7 1 1.4 1.4 2.2.3.7.5 1.5.7 2.2.2.8.2 1.6.1 2.5 0 3-.8 4.9-2.4 5.7s-3.6.7-6.3-.3c-2.7-1-4.8-2.5-6-4.4-1.2-2-1.8-4.4-1.7-6.7v-1.1l5 1.9v.8z" class="st0"/><path d="M23.3 24c0 .6.1 1.3.1 1.9.1.5.2 1.1.4 1.6.3.5.6.9 1 1.3s1 .7 1.6.9c.7.3 1.5.3 2.1-.1.6-.3.9-1.1 1-2.3 0-.6-.1-1.2-.2-1.7s-.4-1.1-.7-1.5c-.4-.6-.8-1.1-1.3-1.6s-1.2-1-2-1.7c-1-.7-2-1.6-2.8-2.5-.8-.7-1.5-1.6-2-2.5-.5-.9-.9-1.8-1.1-2.8-.3-1.1-.4-2.1-.3-3.2 0-2.8.7-4.6 2.1-5.5 1.3-.9 3.3-.8 5.6.1 1.1.4 2.1.9 3.1 1.6.9.6 1.8 1.4 2.4 2.2.7.9 1.2 1.9 1.6 3 .4 1.2.6 2.4.5 3.7v.8l-4.7-1.8c.1-1.2-.1-2.3-.6-3.4-.4-.9-1.1-1.6-2-1.9-.4-.2-.9-.3-1.4-.2-.3 0-.7.1-.9.4-.2.2-.4.6-.4.9-.1.4-.1.8-.1 1.2 0 .8.1 1.6.4 2.4.5.9 1.2 1.7 2 2.4l3.8 3.4c.9.7 1.6 1.5 2.3 2.4.5.7 1 1.4 1.3 2.2.3.7.6 1.5.7 2.2.1.8.1 1.6.1 2.5-.1 3-.8 4.9-2.4 5.7s-3.7.7-6.3-.3c-2.6-1-4.9-2.5-6-4.3-1.3-2-1.9-4.4-1.7-6.7v-1.2l4.9 1.9-.1.5z" class="st1"/><path d="M22.5 24.3c0 .6 0 1.3.1 1.9.1.5.3 1.1.5 1.6.3.4.6.9 1 1.2.5.4 1.1.7 1.6 1 .7.3 1.4.2 2-.1.7-.4 1-1.1 1-2.3 0-.6-.1-1.2-.1-1.7-.2-.6-.4-1.1-.7-1.6-.4-.5-.9-1-1.3-1.5-.7-.6-1.4-1.2-2.1-1.7-1-.8-1.9-1.6-2.8-2.5-.7-.8-1.4-1.6-1.9-2.5-.5-.9-.9-1.8-1.2-2.8-.2-1.1-.3-2.1-.3-3.2.1-2.8.7-4.7 2.2-5.5 1.4-.8 3.2-.9 5.6 0 .9.3 1.9.8 2.8 1.4.9.6 1.7 1.4 2.4 2.2.7.9 1.2 1.9 1.5 3 .4 1.2.6 2.4.5 3.7v.8L28.6 14c.1-1.1-.1-2.3-.5-3.4-.4-.9-1.2-1.6-2.1-1.9-.4-.2-.9-.2-1.3-.2-.3.1-.7.2-.9.4-.2.2-.4.5-.4.8-.1.4-.2.8-.1 1.2-.1.8.1 1.7.4 2.4.5 1 1.2 1.8 2 2.5l3.8 3.3c.8.7 1.6 1.5 2.2 2.4.5.7 1 1.4 1.4 2.2.4.7.6 1.5.7 2.2.1.8.2 1.6.2 2.5-.1 3-.9 4.9-2.4 5.8-1.5.8-3.7.7-6.4-.4-2.7-1-4.8-2.5-6-4.3-1.2-2-1.8-4.4-1.7-6.7v-1.1l5 1.9v.7z" class="st2"/><path d="M21.8 24.5c-.1.6 0 1.3.1 1.9 0 .6.2 1.1.5 1.6.2.5.6.9 1 1.3.5.4 1 .7 1.6.9.7.3 1.4.3 2.1-.1.7-.5 1.1-1.4 1-2.3 0-.6-.1-1.2-.2-1.7-.2-.5-.4-1.1-.7-1.6L25.7 23l-2.1-1.7c-1-.7-2-1.6-2.8-2.5-.8-.8-1.5-1.6-2-2.5-.5-.9-.9-1.8-1.1-2.8-.3-1.1-.4-2.1-.3-3.2 0-2.8.7-4.6 2.1-5.5 1.3-.9 3.3-.8 5.6 0 1.1.4 2.1.9 3.1 1.6.9.6 1.7 1.4 2.4 2.2.7.9 1.2 1.9 1.6 3 .4 1.2.6 2.5.5 3.7v.7L28 14.2c.1-1.1-.1-2.3-.6-3.3-.5-.9-1.2-1.6-2.2-1.9-.5-.2-.9-.3-1.4-.3-.7.1-1.3.6-1.3 1.3-.1.4-.1.8-.1 1.2 0 .8.2 1.6.4 2.4.5.9 1.2 1.7 2 2.4l3.8 3.4c.8.7 1.6 1.5 2.3 2.3.6.7 1 1.4 1.4 2.2.3.7.5 1.5.7 2.2.1.8.2 1.6.1 2.5 0 3-.8 4.9-2.3 5.7s-3.7.7-6.4-.3c-2.4-.8-4.5-2.3-6-4.3-1.3-2-1.9-4.4-1.7-6.7v-1.2l5 1.9.1.8z" class="st3"/><path d="M20.9 24.8c0 .6 0 1.2.1 1.8.1.5.2 1.1.4 1.6.3.5.6.9 1 1.3s1 .7 1.6.9c.7.3 1.5.3 2.1-.1.6-.3.9-1.1.9-2.3.1-.6 0-1.2-.1-1.7s-.4-1.1-.7-1.5c-.4-.6-.8-1.1-1.3-1.6l-2.1-1.7-2.8-2.4c-.7-.8-1.4-1.6-1.9-2.5-.5-.9-.9-1.8-1.2-2.8-.2-1.1-.3-2.2-.3-3.3.1-2.8.7-4.6 2.2-5.5s3.2-.9 5.6 0c1.1.4 2.1.9 3.1 1.6 1.9 1.2 3.2 3 3.9 5.2.4 1.2.6 2.5.5 3.7v.7L27 14.5c.1-1.1-.1-2.3-.5-3.4-.4-.9-1.2-1.6-2.1-1.9C24 9 23.5 9 23 9c-.3 0-.7.1-.9.4-.2.2-.4.6-.4.9-.1.4-.2.8-.1 1.2 0 .8.1 1.6.4 2.4.5.9 1.2 1.8 2 2.4l3.8 3.4c.8.7 1.6 1.5 2.2 2.3.6.7 1.1 1.4 1.4 2.2.3.7.6 1.5.7 2.2.1.8.1 1.6.1 2.5-.1 3-.8 4.9-2.4 5.7s-3.6.7-6.3-.3c-2.7-1-4.9-2.5-6-4.3-1.3-2-1.9-4.4-1.7-6.7v-1.1l4.9 1.8v.8z" class="st4"/><path d="M20.2 25.1c0 .6 0 1.3.1 1.9.1.6.3 1.1.5 1.6.3.5.6.9 1 1.3.5.4 1.1.7 1.6.9.7.3 1.4.2 2-.1.7-.4 1-1.1 1-2.3 0-.6-.1-1.2-.2-1.7-.2-.7-.4-1.2-.7-1.7-.4-.5-.9-1-1.3-1.5-.6-.5-1.3-1.1-2.1-1.7-1-.7-2-1.6-2.8-2.5-.8-.8-1.4-1.6-2-2.5-.5-.9-.9-1.8-1.1-2.8-.3-1.1-.4-2.1-.3-3.2 0-2.8.7-4.6 2.1-5.5s3.3-.9 5.6 0c1.1.4 2.1.9 3.1 1.6.9.6 1.8 1.4 2.4 2.2.7.9 1.2 1.9 1.6 3 .4 1.2.6 2.4.5 3.7v.8l-4.8-1.8c.1-1.2-.1-2.3-.6-3.4-.4-.9-1.1-1.6-2-1.9l-1.4-.2c-.7.1-1.3.6-1.3 1.3-.1.4-.1.7-.1 1.1 0 .8.1 1.6.4 2.4.5 1 1.2 1.8 2.1 2.5l3.7 3.3c.9.7 1.6 1.5 2.3 2.4.6.7 1 1.4 1.4 2.2.3.7.6 1.5.7 2.2.2.8.2 1.6.2 2.5-.1 3-.9 4.9-2.4 5.7s-3.7.7-6.4-.2c-2.7-1-4.8-2.5-6-4.4-1.2-2-1.8-4.4-1.7-6.7v-1.1l5 1.9v.7z" class="st5"/><path d="M19.4 25.3c0 .6.1 1.3.1 1.9 0 .6.2 1.1.5 1.6.2.5.6.9 1 1.3.5.4 1 .7 1.6.9.7.3 1.4.3 2.1-.1.7-.5 1.1-1.4 1-2.3 0-.6-.1-1.2-.2-1.7-.2-.6-.4-1.1-.7-1.6-.4-.6-.8-1.1-1.3-1.5-.5-.5-1.2-1-2-1.7-1-.7-2-1.6-2.8-2.5-.8-.7-1.5-1.6-2-2.5-.5-.9-.9-1.8-1.1-2.8-.3-1-.4-2.1-.4-3.2.1-2.8.7-4.6 2.2-5.5s3.2-.8 5.6 0c1.1.4 2.1 1 3.1 1.6.9.7 1.7 1.4 2.4 2.2.7.9 1.2 1.9 1.5 3 .4 1.2.6 2.4.5 3.7v.8l-4.8-1.8c.1-1.1-.1-2.3-.5-3.3-.4-.9-1.2-1.6-2.1-1.9-.4-.2-.9-.3-1.3-.2-.3 0-.7.1-.9.4-.2.2-.4.6-.4.9-.5.2-.6.6-.5 1 0 .8.2 1.6.4 2.4.5.9 1.2 1.7 2 2.4l3.8 3.4c.8.7 1.6 1.5 2.3 2.3.5.7 1 1.5 1.3 2.2.4.7.6 1.5.7 2.2.1.8.2 1.6.1 2.4 0 3.1-.8 4.9-2.3 5.8-1.5.8-3.7.7-6.4-.3s-4.8-2.5-6-4.3c-1.3-2-1.9-4.4-1.7-6.7v-1.2l5 1.9.2.8z" class="st6"/><path d="M18.6 25.6c0 .6 0 1.3.1 1.9.1.5.2 1.1.4 1.6.3.5.6.9 1 1.2.4.4 1 .7 1.6.9.7.3 1.5.3 2.1-.1.6-.3.9-1.1.9-2.3.1-.6 0-1.2-.1-1.7s-.4-1.1-.7-1.5c-.4-.6-.8-1.1-1.3-1.6l-2.1-1.6-2.8-2.5c-.7-.8-1.4-1.6-1.9-2.5-.6-.8-1-1.8-1.2-2.8-.3-1.1-.4-2.1-.3-3.2 0-2.8.7-4.7 2.1-5.5s3.3-.9 5.6 0c1 .2 2 .7 3 1.4.9.6 1.7 1.4 2.4 2.2.7.9 1.2 1.9 1.6 2.9.4 1.2.6 2.5.5 3.7v.9l-4.8-1.7c.1-1.2-.1-2.3-.6-3.4-.4-.9-1.1-1.6-2-1.9-.4-.2-.9-.3-1.4-.2-.3 0-.6.2-.9.4-.2.2-.4.6-.4.9-.1.4-.1.8-.1 1.2 0 .8.1 1.6.4 2.4.5.9 1.2 1.8 2.1 2.4l3.8 3.4c.8.7 1.6 1.5 2.2 2.3.6.7 1 1.4 1.4 2.2.3.7.6 1.5.7 2.2.1.8.1 1.6.1 2.5-.1 3-.8 4.9-2.4 5.7s-3.6.7-6.3-.3c-2.7-1-4.9-2.5-6-4.3-1.2-2-1.9-4.4-1.8-6.7V23l5 1.9v.7z" class="st7"/><path d="M17.9 25.8c0 .6 0 1.3.1 1.9 0 .6.2 1.1.5 1.6s.6.9 1 1.3c.5.4 1 .7 1.6.9.7.3 1.4.2 2-.1.7-.4 1-1.1 1-2.3 0-.6-.1-1.2-.2-1.7-.2-.5-.4-1.1-.7-1.6-.4-.5-.9-1-1.3-1.5-.6-.5-1.3-1.1-2.1-1.7-1-.7-2-1.6-2.8-2.5-.8-.8-1.5-1.6-2-2.5-.5-.9-.9-1.8-1.1-2.8-.3-1-.4-2.1-.4-3.2.1-2.8.7-4.6 2.2-5.5s3.2-.9 5.6 0c1.1.4 2.1 1 3.1 1.6.9.6 1.7 1.4 2.4 2.2.7.9 1.2 1.9 1.5 3 .4 1.2.6 2.4.5 3.7v.8l-4.7-1.8c0-1.2-.2-2.3-.6-3.4-.4-.9-1.2-1.6-2.1-1.9l-1.5-.3c-.7.1-1.3.6-1.3 1.3-.1.4-.2.8-.1 1.2 0 .8.1 1.6.4 2.3.5 1 1.2 1.8 2 2.5l3.8 3.3c.9.7 1.6 1.5 2.3 2.4.6.7 1 1.4 1.4 2.2.3.7.6 1.5.7 2.2.2.8.2 1.6.2 2.5-.1 3-.9 4.9-2.4 5.7-1.5.7-3.7.7-6.4-.2-2.4-.8-4.5-2.3-6-4.3-1.2-2-1.8-4.4-1.7-6.7v-1.2l5 1.9.1.7z" class="st8"/><path d="M17 26c0 .6.1 1.3.1 1.9.1.5.2 1.1.4 1.6.3.5.6.9 1 1.3.5.4 1 .7 1.6.9.7.3 1.5.3 2.1-.1.7-.5 1.1-1.4 1-2.3 0-.6-.1-1.2-.2-1.7-.2-.6-.4-1.1-.7-1.6-.4-.6-.8-1.1-1.3-1.5-.5-.5-1.3-1-2.1-1.7l-2.8-2.4c-.7-.8-1.4-1.6-1.9-2.5-.5-.9-.9-1.8-1.2-2.8-.3-1.1-.4-2.1-.3-3.2 0-2.8.7-4.7 2.1-5.5s3.3-.9 5.6-.1c1.1.4 2.1.9 3.1 1.6.9.7 1.7 1.4 2.4 2.2.7.9 1.2 1.9 1.6 3 .4 1.2.6 2.4.5 3.7v.8l-4.8-1.8c.1-1.1-.1-2.3-.6-3.3-.4-.9-1.1-1.6-2-1.9-.4-.2-.9-.3-1.4-.2-.3 0-.7.1-.9.4-.2.2-.4.6-.4.9-.1.4-.1.8-.1 1.2 0 .8.1 1.6.4 2.4.6.9 1.3 1.7 2.1 2.4l3.8 3.4c.8.7 1.6 1.5 2.2 2.3.6.7 1 1.4 1.4 2.2.3.7.6 1.5.7 2.2.1.8.2 1.6.1 2.5 0 3-.8 4.9-2.3 5.8s-3.7.7-6.4-.3-4.8-2.5-6-4.3c-1.3-2-1.9-4.4-1.7-6.7v-1.1l4.9 1.8v.5z" class="st9"/><path d="M10.1 42.2c-1.2-.4-2.3-.9-3.4-1.4-.3-.1-.4-.4-.3-.7V40l.6-1.2 1.1.5-.4 1 2.2.9.4-1c-1-1-1.5-1.6-2.3-2.6-.1-.2-.2-.4-.1-.6l.7-1.3c.1-.3.4-.4.7-.3l3 1.2c.3.1.4.4.3.7-.2.4-.3.8-.4 1.3l-1-.4.3-.9-1.9-.8-.4.8c.9 1 1.3 1.6 2.3 2.5.2.2.2.4.1.6l-.5 1.5c-.3.3-.6.4-1 .3.1 0 .1 0 0 0zm5.6-3.6l-1.1 4.9-1.2-.3c.5-1.9.7-2.9 1.3-4.8l-1.7-.5.3-.9c1.4.5 2.8.8 4.3 1l-.2 1-1.7-.4zm1.6 5.4c.4-2.3.6-3.5 1-5.8l1 .1-.7 5.9-1.3-.2zm6.9.5c-1.3 0-2.6 0-3.9-.1-.4 0-.5-.2-.5-.6l.5-4.8c0-.2.1-.5.4-.5h.2l3.3.1c.2 0 .5.1.5.4v1.7h-1v-1.1h-2.2c-.1 1.6-.2 2.5-.3 4l2.5.1v-1.3h1.2V44c-.1.3-.3.5-.7.5zm5.2-.3c-1-.9-1.4-1.4-2.3-2.3.1 1 .1 1.5.2 2.5H26c-.1-2.4-.1-3.6-.3-6h1c.1 1 .1 1.5.2 2.4.5-.8 1-1.7 1.4-2.5l1.3-.1c-.5 1.1-1.1 2.1-1.7 3.1 1.1 1.1 1.7 1.6 2.9 2.7h.2l-1.6.2zm2.2-.3c-.4-2.3-.7-3.5-1-5.8 1.2-.2 2.5-.5 3.7-.9l.3.9c-.9.3-1.8.6-2.8.7.1.5.2.9.3 1.4l2.4-.5.2.8c-.8.3-1.6.5-2.4.6l.3 1.6c1.1-.2 2.1-.4 3.1-.7l.3.9c-1.5.4-2.9.7-4.4 1zm8.9-2.7l-2.8-1.6-.2-.6 1.6-.7c-.3-.5-.5-1.1-.7-1.6l-2 .8c.7 1.9 1 2.8 1.7 4.7l-1.1.3-1.9-5.7c1.2-.4 2.4-.8 3.5-1.3.3-.1.6 0 .7.3l1 2.2c.1.3 0 .6-.2.7H40l-.8.4 2.6 1.4-1.3.7zm-37-1.7L3 38l-1.6-.4 1.3-1V35L4 36l1.4-.5L5 37l1 1.3H4.4l-.9 1.2zm43.9-2L46 38l-.4 1.5-1-1.3-1.6.1 1-1.3-.6-1.5 1.5.4 1.3-1v1.6l1.2 1z" class="st10"/></svg>