<svg xmlns="http://www.w3.org/2000/svg" width="32" height="32" viewBox="0 0 32 32"><path fill="#221e1f" d="M0 0h32v32H0z"/><path fill="#221e1f" d="M16 15.9a4.9 4.9 0 0 0 .1 1.2l.3 1a3.1 3.1 0 0 0 .7.9l1.1.6a1.2 1.2 0 0 0 1.3-.1c.5-.2.7-.7.7-1.5a4.9 4.9 0 0 0-.1-1.2l-.5-1a4.1 4.1 0 0 0-.9-1l-1.4-1.1-1.9-1.7a7 7 0 0 1-1.3-1.7 7.1 7.1 0 0 1-.8-1.8 15 15 0 0 1-.2-2.2c0-1.9.5-3.1 1.4-3.7a4.2 4.2 0 0 1 3.8 0 7.8 7.8 0 0 1 2 1.1 4.6 4.6 0 0 1 1.6 1.5 6.4 6.4 0 0 1 1.1 2 8.8 8.8 0 0 1 .3 2.4v.6L20.1 9a5.3 5.3 0 0 0-.4-2.3 2 2 0 0 0-1.3-1.2 2 2 0 0 0-1-.2l-.6.3a1.6 1.6 0 0 0-.3.6c0 .2-.1.5-.1.8a4.1 4.1 0 0 0 .3 1.6 4.8 4.8 0 0 0 1.4 1.6l2.5 2.2a10.6 10.6 0 0 1 1.5 1.6 6.5 6.5 0 0 1 1 1.5 8.8 8.8 0 0 1 .5 1.5c0 .5.1 1 .1 1.6s-.6 3.3-1.6 3.8-2.5.5-4.3-.2a7.8 7.8 0 0 1-4-2.9 8.8 8.8 0 0 1-1.1-4.5v-.7l3.3 1.2z"/><path fill="#393536" d="M15.5 16a5.3 5.3 0 0 0 .1 1.3 1.7 1.7 0 0 0 .3 1l.7.9 1.1.6a1.5 1.5 0 0 0 1.3-.1 1.6 1.6 0 0 0 .7-1.5 4.3 4.3 0 0 0-.2-1.2 2.1 2.1 0 0 0-.4-1l-.9-1-1.4-1.2-1.9-1.6a9.6 9.6 0 0 1-1.3-1.7 6.4 6.4 0 0 1-.8-1.9 7.1 7.1 0 0 1-.2-2.1c0-1.9.5-3.1 1.4-3.7s2.2-.6 3.8 0l2 1a11.7 11.7 0 0 1 1.6 1.5 7.5 7.5 0 0 1 1 2 6.9 6.9 0 0 1 .4 2.5v.5l-3.2-1.2a4.8 4.8 0 0 0-.4-2.2 2.1 2.1 0 0 0-1.4-1.2 1.5 1.5 0 0 0-.9-.2.9.9 0 0 0-.6.3 1.6 1.6 0 0 0-.3.6 1.9 1.9 0 0 0-.1.8 3.7 3.7 0 0 0 .3 1.5 5 5 0 0 0 1.4 1.7l2.5 2.2 1.5 1.6 1 1.5a3.3 3.3 0 0 1 .4 1.5 4.2 4.2 0 0 1 .1 1.6c0 2-.5 3.3-1.5 3.8a5.4 5.4 0 0 1-4.3-.2 8.3 8.3 0 0 1-4-2.9 8.4 8.4 0 0 1-1.1-4.5v-.8l3.3 1.3z"/><path fill="#504d4e" d="M15 16.2a4.9 4.9 0 0 0 .1 1.2 2 2 0 0 0 .3 1.1 2.7 2.7 0 0 0 .7.8 1.7 1.7 0 0 0 1 .6 1.7 1.7 0 0 0 1.4 0 2.2 2.2 0 0 0 .7-1.6 3.6 3.6 0 0 0-.2-1.1 1.9 1.9 0 0 0-.5-1 4.4 4.4 0 0 0-.9-1.1L16.3 14a10.8 10.8 0 0 1-1.9-1.7 10 10 0 0 1-1.4-1.6 7.3 7.3 0 0 1-.7-1.9 5.3 5.3 0 0 1-.2-2.2c0-1.8.5-3.1 1.4-3.7a4.4 4.4 0 0 1 3.7.1 6.8 6.8 0 0 1 2.1 1 7.5 7.5 0 0 1 1.6 1.5 7.5 7.5 0 0 1 1 2 6.6 6.6 0 0 1 .4 2.5v.5l-3.2-1.2a4.8 4.8 0 0 0-.4-2.2 2.6 2.6 0 0 0-1.4-1.3c-.4-.1-.7-.2-.9-.1l-.6.2a.9.9 0 0 0-.3.6 2.2 2.2 0 0 0-.1.8 4.1 4.1 0 0 0 .3 1.6 4.3 4.3 0 0 0 1.3 1.6l2.6 2.3 1.5 1.5a6 6 0 0 1 .9 1.5 4.4 4.4 0 0 1 .5 1.5 9.1 9.1 0 0 1 .1 1.7c0 2-.5 3.2-1.6 3.8s-2.4.4-4.2-.2a7.9 7.9 0 0 1-4-2.9 7.6 7.6 0 0 1-1.1-4.5v-.8l3.3 1.2z"/><path fill="#676465" d="M14.5 16.4v1.2a3 3 0 0 0 .4 1c.1.4.4.6.6.9l1.1.6A1.4 1.4 0 0 0 18 20q.6-.3.6-1.5a4.9 4.9 0 0 0-.1-1.2 3.1 3.1 0 0 0-.5-1 4.1 4.1 0 0 0-.9-1l-1.4-1.1-1.9-1.7a10.9 10.9 0 0 1-1.3-1.7 14.2 14.2 0 0 1-.8-1.8 15 15 0 0 1-.2-2.2c.1-1.9.5-3.1 1.5-3.7s2.1-.6 3.7 0a8.4 8.4 0 0 1 2.1 1.1 7.5 7.5 0 0 1 1.6 1.5 9.3 9.3 0 0 1 1 2 8.8 8.8 0 0 1 .3 2.4v.6l-3.2-1.2a5.4 5.4 0 0 0-.3-2.3A2.4 2.4 0 0 0 16.8 6a1.8 1.8 0 0 0-.9-.2l-.6.3a.7.7 0 0 0-.3.6 1.9 1.9 0 0 0-.1.8 2.2 2.2 0 0 0 .3 1.6 4.3 4.3 0 0 0 1.3 1.6l2.6 2.2 1.5 1.6a6 6 0 0 1 .9 1.5 4.4 4.4 0 0 1 .5 1.5 8.1 8.1 0 0 1 .1 1.6c0 2-.6 3.3-1.6 3.8s-2.4.5-4.2-.2a7.4 7.4 0 0 1-4-2.9 7.2 7.2 0 0 1-1.1-4.5v-.7l3.3 1.2z"/><path fill="#7e7c7d" d="M14 16.5v1.3a3 3 0 0 0 .4 1 4.7 4.7 0 0 0 .6.9l1.1.6a1.7 1.7 0 0 0 1.4-.1q.6-.3.6-1.5a4.5 4.5 0 0 0-.1-1.2l-.5-1a4.1 4.1 0 0 0-.9-1 8.7 8.7 0 0 0-1.4-1.2l-1.9-1.6A9.6 9.6 0 0 1 12 11a6.4 6.4 0 0 1-.8-1.9A12.5 12.5 0 0 1 11 7c0-1.9.5-3.1 1.4-3.7a4.2 4.2 0 0 1 3.8 0 12.4 12.4 0 0 1 2 1 11.7 11.7 0 0 1 1.6 1.5 7.8 7.8 0 0 1 1.1 2 10.1 10.1 0 0 1 .3 2.5v.5L18 9.6a4.8 4.8 0 0 0-.4-2.2 2 2 0 0 0-1.3-1.2 2 2 0 0 0-1-.2.9.9 0 0 0-.6.3 1.6 1.6 0 0 0-.3.6c0 .2-.1.5-.1.8a4.5 4.5 0 0 0 .3 1.6 6 6 0 0 0 1.4 1.6l2.5 2.2 1.6 1.6a8 8 0 0 1 .9 1.4 8.8 8.8 0 0 1 .5 1.5 9.7 9.7 0 0 1 .1 1.7c0 2-.6 3.3-1.6 3.8a5.2 5.2 0 0 1-4.2-.2 7.9 7.9 0 0 1-4-2.9 7.9 7.9 0 0 1-1.2-4.5v-.8L14 16z"/><path fill="#959394" d="M13.4 16.7c0 .4.1.9.1 1.2l.3 1.1a2.7 2.7 0 0 0 .7.8 2.4 2.4 0 0 0 1.1.6 1.7 1.7 0 0 0 1.4 0 1.8 1.8 0 0 0 .6-1.6 3.7 3.7 0 0 0-.1-1.1 3.1 3.1 0 0 0-.5-1 4.4 4.4 0 0 0-.9-1.1l-1.4-1.1-1.9-1.6a9.6 9.6 0 0 1-1.3-1.7 6.4 6.4 0 0 1-.8-1.9 7.8 7.8 0 0 1-.2-2.2c0-1.8.5-3.1 1.4-3.6s2.2-.6 3.8 0a7.5 7.5 0 0 1 2 1A5.7 5.7 0 0 1 19.3 6a5.4 5.4 0 0 1 1 2 6.6 6.6 0 0 1 .4 2.5v.5l-3.2-1.2a4.8 4.8 0 0 0-.4-2.2 2.6 2.6 0 0 0-1.4-1.3 1.4 1.4 0 0 0-.9-.1l-.6.2-.3.6a2.2 2.2 0 0 0-.1.8 4.1 4.1 0 0 0 .3 1.6 4.8 4.8 0 0 0 1.4 1.6l2.5 2.3a7.1 7.1 0 0 1 1.5 1.5 6.5 6.5 0 0 1 1 1.5 8.8 8.8 0 0 1 .5 1.5c0 .5.1 1.1.1 1.7s-.6 3.2-1.6 3.8-2.4.4-4.2-.2a7.9 7.9 0 0 1-4-2.9 8.4 8.4 0 0 1-1.2-4.5v-.8l3.3 1.2z"/><path fill="#acabac" d="M12.9 16.9a4.9 4.9 0 0 0 .1 1.2l.3 1.1.7.8 1.1.6a1.4 1.4 0 0 0 1.4-.1q.6-.3.6-1.5a4.9 4.9 0 0 0-.1-1.2l-.5-1-.9-1-1.4-1.1a16.2 16.2 0 0 1-1.9-1.7 7 7 0 0 1-1.3-1.7 4.2 4.2 0 0 1-.8-1.8 5.3 5.3 0 0 1-.2-2.2c0-1.9.5-3.1 1.4-3.7a4 4 0 0 1 3.7 0 7 7 0 0 1 2.1 1.1 7.5 7.5 0 0 1 1.6 1.5 6.3 6.3 0 0 1 1 2 6.1 6.1 0 0 1 .4 2.4v.6L17 10a5.3 5.3 0 0 0-.4-2.3 2.1 2.1 0 0 0-1.4-1.2l-.9-.2-.6.3a.9.9 0 0 0-.3.6 1.9 1.9 0 0 0-.1.8 4.1 4.1 0 0 0 .3 1.6 4.8 4.8 0 0 0 1.4 1.6l2.5 2.2L19 15l1 1.5a4.2 4.2 0 0 1 .4 1.5 7.8 7.8 0 0 1 .2 1.6c-.1 2-.6 3.3-1.6 3.8s-2.5.5-4.2-.2a7.6 7.6 0 0 1-4.1-2.9 8.8 8.8 0 0 1-1.1-4.5v-.7l3.3 1.2z"/><path fill="#c3c2c3" d="M12.4 17a5.3 5.3 0 0 0 .1 1.3 1.7 1.7 0 0 0 .3 1l.7.9 1.1.6a1.5 1.5 0 0 0 1.3-.1 1.6 1.6 0 0 0 .7-1.5 4.3 4.3 0 0 0-.2-1.2 4.2 4.2 0 0 0-.4-1l-.9-1-1.4-1.2a10.6 10.6 0 0 1-1.9-1.6 7.5 7.5 0 0 1-1.4-1.7 6.2 6.2 0 0 1-.7-1.9 6.6 6.6 0 0 1-.3-2.1c.1-1.9.5-3.1 1.5-3.7s2.1-.6 3.7 0l2.1 1a11.4 11.4 0 0 1 1.6 1.5 12.4 12.4 0 0 1 1 2 6.9 6.9 0 0 1 .3 2.5v.5l-3.2-1.2a4.9 4.9 0 0 0-.3-2.2 2.4 2.4 0 0 0-1.4-1.2 1.8 1.8 0 0 0-.9-.2.6.6 0 0 0-.6.3.6.6 0 0 0-.3.6 1.9 1.9 0 0 0-.1.8 4.5 4.5 0 0 0 .3 1.6 5.3 5.3 0 0 0 1.3 1.6l2.6 2.2 1.5 1.6 1 1.4a8.3 8.3 0 0 1 .4 1.5 4.9 4.9 0 0 1 .1 1.7c0 2-.5 3.3-1.5 3.8a5.4 5.4 0 0 1-4.3-.2 8.3 8.3 0 0 1-4-2.9A7.9 7.9 0 0 1 9.1 16v-.8l3.3 1.3z"/><path fill="#dadadb" d="M11.9 17.2a4.5 4.5 0 0 0 .1 1.2 2 2 0 0 0 .3 1.1 2.7 2.7 0 0 0 .7.8 1.7 1.7 0 0 0 1 .6 1.7 1.7 0 0 0 1.4 0 2.2 2.2 0 0 0 .7-1.6 3.6 3.6 0 0 0-.2-1.1 1.9 1.9 0 0 0-.5-1 4.4 4.4 0 0 0-.9-1.1L13.1 15l-1.9-1.6-1.3-1.7a10.8 10.8 0 0 1-.8-1.9 13.6 13.6 0 0 1-.2-2.1c0-1.9.5-3.2 1.4-3.7a4.2 4.2 0 0 1 3.8 0 7.5 7.5 0 0 1 2 1 5.7 5.7 0 0 1 1.6 1.5 6.4 6.4 0 0 1 1.1 2 9.5 9.5 0 0 1 .3 2.5v.5l-3.2-1.2a4.8 4.8 0 0 0-.4-2.2 2.4 2.4 0 0 0-1.3-1.3 1.8 1.8 0 0 0-1-.1l-.6.2-.3.6c0 .3-.1.5-.1.8a4.1 4.1 0 0 0 .3 1.6 6.4 6.4 0 0 0 1.4 1.6l2.6 2.3a10.6 10.6 0 0 1 1.5 1.5 6 6 0 0 1 .9 1.5 4.4 4.4 0 0 1 .5 1.5 9.1 9.1 0 0 1 .1 1.7c0 2-.5 3.2-1.5 3.8s-2.5.4-4.3-.2a7.9 7.9 0 0 1-4-2.9 7.6 7.6 0 0 1-1.1-4.5v-.8l3.3 1.2z"/><path fill="#f1f1f2" d="M11.4 17.4v1.2a3.6 3.6 0 0 0 .4 1.1 2.4 2.4 0 0 0 .6.8l1.1.6a1.4 1.4 0 0 0 1.4-.1q.6-.3.6-1.5a4.9 4.9 0 0 0-.1-1.2 9.3 9.3 0 0 0-.5-1 4.1 4.1 0 0 0-.9-1l-1.4-1.1-1.9-1.7a7 7 0 0 1-1.3-1.7 5.8 5.8 0 0 1-.8-1.8 7.8 7.8 0 0 1-.2-2.2c0-1.8.5-3.1 1.4-3.7s2.2-.6 3.8 0a7.8 7.8 0 0 1 2 1.1 5.7 5.7 0 0 1 1.6 1.5 4.2 4.2 0 0 1 1 2 6.1 6.1 0 0 1 .4 2.4v.6l-3.2-1.2a5.3 5.3 0 0 0-.4-2.3A2.1 2.1 0 0 0 13.6 7l-.9-.2-.6.3-.3.6c0 .3-.1.5-.1.8a4.1 4.1 0 0 0 .3 1.6 4.8 4.8 0 0 0 1.4 1.6l2.5 2.2a12 12 0 0 1 1.6 1.6 6 6 0 0 1 .9 1.5 8.8 8.8 0 0 1 .5 1.5 8.1 8.1 0 0 1 .1 1.6c0 2-.5 3.3-1.6 3.8s-2.4.5-4.2-.2a7.4 7.4 0 0 1-4-2.9A7.8 7.8 0 0 1 8 16.4v-.8l3.4 1.2z"/><path fill="#fff" d="M6.8 28.1l-2.3-.9c-.3-.1-.3-.3-.2-.5l.4-.9.7.4-.3.6 1.5.6c.1-.2.1-.4.2-.6A8.4 8.4 0 0 1 5.3 25a.4.4 0 0 1-.1-.3l.4-.9a.4.4 0 0 1 .5-.2l2 .8c.2.1.3.2.2.4l-.3.9-.7-.3.2-.6-1.3-.5-.2.6 1.5 1.7a.4.4 0 0 1 .1.3l-.3 1a.4.4 0 0 1-.5.2zm3.7-2.4L9.7 29l-.8-.2.9-3.2-1.1-.3.2-.7a12.8 12.8 0 0 0 2.8.7 1.7 1.7 0 0 0-.1.7zm1 3.6l.7-3.9h.7c-.3 1.6-.4 2.4-.6 4zm4.6.4h-2.6c-.2 0-.3-.2-.3-.4s.2-1.9.3-3.2.2-.4.4-.4h2.2a.4.4 0 0 1 .4.4v1h-.8v-.7h-1.5A24.5 24.5 0 0 1 14 29h1.7v-.8h.8v1c0 .4-.1.5-.4.5zm3.5-.2a12.1 12.1 0 0 1-1.6-1.6c.1.7.1 1 .2 1.7h-.8c-.1-1.6-.2-2.4-.2-4h.7a9.2 9.2 0 0 0 .1 1.6l.9-1.7.9-.2a19.8 19.8 0 0 1-1.1 2l1.9 1.8zm1.4-.2c-.2-1.6-.4-2.4-.7-4a11.4 11.4 0 0 0 2.5-.6l.2.7-1.8.4a3.6 3.6 0 0 0 .2 1l1.5-.4a4.2 4.2 0 0 0 .2.6l-1.6.4.2 1.1 2.1-.6.2.6zm6-1.8l-1.9-1.2a.4.4 0 0 0-.1-.3l1.1-.5-.5-1.1-1.3.5c.5 1.3.7 1.9 1.1 3.2l-.8.2-1.2-3.7 2.3-.9a.4.4 0 0 1 .5.2l.7 1.5c.1.2 0 .3-.2.4l-.6.3 1.8.9zM2.3 26.4l-.3-1-1-.3.8-.6v-1.1l.8.6 1-.3-.3 1 .7.8H2.9zM31.6 25l-1 .3-.3 1-.6-.8h-1l.6-.8-.4-1 1 .3.8-.6.1 1z"/></svg>