<svg id="图层_1" data-name="图层 1" xmlns="http://www.w3.org/2000/svg" width="16" height="16" viewBox="0 0 16 16"><title>logo-16</title><rect width="16" height="16.01" fill="#221e1f"/><path d="M8,7.9c0,.2,0,.5.1.6a1.3,1.3,0,0,0,.1.6l.4.4.5.3h.7c.2-.1.3-.4.3-.8a1.3,1.3,0,0,0-.1-.6c0-.2-.1-.3-.2-.5l-.5-.5-.6-.6L7.7,6,7,5.2a2.9,2.9,0,0,1-.3-1,2,2,0,0,1-.1-1.1c0-.9.2-1.5.7-1.8a1.9,1.9,0,0,1,1.8,0l1.1.5a6,6,0,0,1,.8.8,3.1,3.1,0,0,1,.5,1,2.5,2.5,0,0,1,.1,1.2v.3l-1.5-.6a3.1,3.1,0,0,0-.2-1.1,2.3,2.3,0,0,0-.7-.7c-.2,0-.4-.1-.5,0H8.4a.4.4,0,0,0-.1.3c-.1.1-.1.2-.1.4a2.4,2.4,0,0,0,.2.8,3.3,3.3,0,0,0,.6.8l1.3,1.1.8.8.4.7a2.6,2.6,0,0,1,.3.8v.8c0,1-.3,1.7-.8,1.9a2.2,2.2,0,0,1-2.1-.1,3.8,3.8,0,0,1-2-1.4,3.6,3.6,0,0,1-.5-2.3V7L8,7.6Z" fill="#221e1f"/><path d="M7.8,8v.6a1.4,1.4,0,0,0,.2.6c0,.1.2.3.3.4l.5.3h.7a1,1,0,0,0,.3-.8V8.5L9.5,8l-.4-.5-.7-.6-1-.8-.6-.9a3.6,3.6,0,0,1-.4-.9,3.7,3.7,0,0,1-.1-1.1c0-.9.2-1.5.7-1.8a2.1,2.1,0,0,1,1.9,0,3.1,3.1,0,0,1,1,.5,3,3,0,0,1,.8.8,3.1,3.1,0,0,1,.5,1,3.7,3.7,0,0,1,.2,1.2v.3L9.8,4.6a3.7,3.7,0,0,0-.2-1.2,1.4,1.4,0,0,0-.7-.6H8.5c-.2.1-.3.1-.3.2s-.2.2-.2.3v.4a1.1,1.1,0,0,0,.1.8,2.3,2.3,0,0,0,.7.8l1.3,1.1.7.8.5.7a2.4,2.4,0,0,1,.2.8,1.9,1.9,0,0,1,.1.8,2,2,0,0,1-.8,1.9,2.6,2.6,0,0,1-2.1-.1,3.2,3.2,0,0,1-2-1.5,3.8,3.8,0,0,1-.6-2.2V7.1l1.7.6Z" fill="#393536"/><path d="M7.5,8.1v.6c.1.2.1.4.2.5l.3.5.6.3a.6.6,0,0,0,.7-.1c.2-.1.3-.3.3-.7a1.3,1.3,0,0,0-.1-.6.8.8,0,0,0-.2-.5l-.5-.5L8.1,7l-.9-.8-.7-.9a3.6,3.6,0,0,1-.4-.9c0-.3-.1-.7-.1-1.1a2.2,2.2,0,0,1,.7-1.8,2.1,2.1,0,0,1,1.9,0,3.1,3.1,0,0,1,1,.5,2,2,0,0,1,.8.8c.3.2.4.6.6.9A5.3,5.3,0,0,1,11.1,5v.2L9.5,4.7a2.2,2.2,0,0,0-.2-1.2.9.9,0,0,0-.6-.6H8.2L7.9,3c-.1,0-.1.1-.2.3v.4a2.5,2.5,0,0,0,.1.8l.7.8L9.8,6.4a6,6,0,0,1,.8.8,2.5,2.5,0,0,1,.4.7l.3.8v.8a2,2,0,0,1-.8,1.9,2.6,2.6,0,0,1-2.1-.1,4.6,4.6,0,0,1-2-1.5,3.8,3.8,0,0,1-.6-2.2V7.2l1.7.6Z" fill="#504d4e"/><path d="M7.2,8.2a1.3,1.3,0,0,0,.1.6,4.3,4.3,0,0,0,.1.5l.4.4a1,1,0,0,0,.5.4H9c.2-.1.3-.3.3-.7V8.7L9,8.2a1,1,0,0,0-.4-.5l-.7-.6-1-.8a4.7,4.7,0,0,1-.6-.9,3.6,3.6,0,0,1-.4-.9,3.7,3.7,0,0,1-.1-1.1c0-.9.2-1.6.7-1.8a2.1,2.1,0,0,1,1.9,0l1,.5a2.7,2.7,0,0,1,.8.7,4.7,4.7,0,0,1,.5,1,5.1,5.1,0,0,1,.2,1.3v.2L9.3,4.7a3.6,3.6,0,0,0-.2-1.1A1.3,1.3,0,0,0,8.4,3H7.6c0,.1-.1.2-.1.3a.8.8,0,0,0-.1.4,1.9,1.9,0,0,0,.2.8,1.7,1.7,0,0,0,.7.8L9.5,6.5a3,3,0,0,1,.8.8l.5.7a1.9,1.9,0,0,1,.2.7c0,.3.1.6.1.9s-.3,1.6-.8,1.9a3.4,3.4,0,0,1-2.2-.1,4.6,4.6,0,0,1-2-1.5,5.1,5.1,0,0,1-.5-2.2V7.3l1.6.6Z" fill="#676465"/><path d="M7,8.3v.6a.8.8,0,0,0,.2.5l.3.4a.7.7,0,0,0,.6.3h.6a.9.9,0,0,0,.4-.8A4.3,4.3,0,0,0,9,8.8l-.2-.6c-.2-.1-.3-.3-.5-.5l-.7-.5-.9-.9A2.7,2.7,0,0,1,6,5.5a3.6,3.6,0,0,1-.4-.9,4.1,4.1,0,0,1-.1-1.1,2.3,2.3,0,0,1,.7-1.9,2.1,2.1,0,0,1,1.9,0l1,.6a2.7,2.7,0,0,1,.8.7,3.1,3.1,0,0,1,.5,1,2.5,2.5,0,0,1,.2,1.2v.3L9,4.8a2,2,0,0,0-.2-1.1.9.9,0,0,0-.7-.6H7.4c-.1.1-.2.2-.2.3v.4a1.9,1.9,0,0,0,.1.8,1.7,1.7,0,0,0,.7.8L9.3,6.5l.7.8a3.5,3.5,0,0,1,.5.8,1.9,1.9,0,0,1,.2.7,2.5,2.5,0,0,1,.1.8,2.2,2.2,0,0,1-.8,2,3.1,3.1,0,0,1-2.1-.1,4.6,4.6,0,0,1-2-1.5,4,4,0,0,1-.6-2.2V7.4L7,8Z" fill="#7e7c7d"/><path d="M6.7,8.3a1.5,1.5,0,0,0,.1.7.9.9,0,0,0,.1.5.8.8,0,0,0,.4.4l.5.3a.9.9,0,0,0,.7,0c.2-.1.3-.4.3-.8a1.3,1.3,0,0,0-.1-.6,1.7,1.7,0,0,0-.2-.5L8,7.8c-.1-.2-.4-.3-.6-.6a3.9,3.9,0,0,1-1-.8,2.7,2.7,0,0,1-.7-.8,2.9,2.9,0,0,1-.3-1,3,3,0,0,1-.2-1c.1-1,.3-1.6.8-1.9a1.9,1.9,0,0,1,1.8,0l1.1.5.8.8a9.3,9.3,0,0,1,.5,1,2.5,2.5,0,0,1,.1,1.2v.3L8.7,4.9a2,2,0,0,0-.1-1.1,1.3,1.3,0,0,0-.7-.6H7.1a.4.4,0,0,0-.1.3.6.6,0,0,0-.1.4,1.9,1.9,0,0,0,.2.8l.6.8L9,6.6l.8.8.4.8c.2.2.2.4.3.7v.8c0,1-.2,1.7-.8,1.9a2.2,2.2,0,0,1-2.1-.1,3.8,3.8,0,0,1-2-1.4,3.4,3.4,0,0,1-.5-2.3V7.5l1.6.6Z" fill="#959394"/><path d="M6.5,8.4v.7l.2.5L7,10l.5.3h.7c.2-.1.3-.4.3-.8V8.9l-.3-.5-.4-.5-.7-.6a3.9,3.9,0,0,1-1-.8l-.6-.8a3,3,0,0,1-.4-1,3.4,3.4,0,0,1-.1-1c0-1,.2-1.6.7-1.9a2.1,2.1,0,0,1,1.9,0l1,.5a3,3,0,0,1,.8.8,3.1,3.1,0,0,1,.5,1,4.3,4.3,0,0,1,.2,1.2v.3L8.5,5a3.1,3.1,0,0,0-.2-1.1,1.6,1.6,0,0,0-.7-.7c-.2,0-.3-.1-.5,0H6.8c0,.1-.1.2-.1.3s-.1.3-.1.4a1.9,1.9,0,0,0,.2.8,2.3,2.3,0,0,0,.7.8L8.7,6.7l.8.8.5.7a2.4,2.4,0,0,1,.2.8,1.9,1.9,0,0,1,.1.8,2,2,0,0,1-.8,1.9,2.2,2.2,0,0,1-2.1-.1,3.4,3.4,0,0,1-2-1.4,4.4,4.4,0,0,1-.6-2.3V7.5l1.7.7Z" fill="#acabac"/><path d="M6.2,8.5v.6c.1.2.1.4.2.6l.3.4.6.3H8a1,1,0,0,0,.3-.8A1.3,1.3,0,0,0,8.2,9c0-.2-.1-.3-.2-.5L7.5,8l-.7-.6a7.3,7.3,0,0,1-.9-.8l-.7-.8a4.2,4.2,0,0,1-.4-1,3.7,3.7,0,0,1-.1-1.1,2.2,2.2,0,0,1,.7-1.8,2.1,2.1,0,0,1,1.9,0,3.1,3.1,0,0,1,1,.5,3,3,0,0,1,.8.8,1.9,1.9,0,0,1,.5,1,2.2,2.2,0,0,1,.2,1.2v.3L8.2,5.1A2.2,2.2,0,0,0,8,3.9a1.1,1.1,0,0,0-.7-.6H6.9l-.3.2-.2.3v.4a2.2,2.2,0,0,0,.1.8l.7.8L8.5,6.8l.8.8a2.5,2.5,0,0,1,.4.7l.3.8v.8a2,2,0,0,1-.8,1.9,2.6,2.6,0,0,1-2.1-.1,3.8,3.8,0,0,1-2-1.4A4.4,4.4,0,0,1,4.5,8V7.6l1.7.6Z" fill="#c3c2c3"/><path d="M5.9,8.6c0,.2.1.4.1.6a4.3,4.3,0,0,0,.1.5l.4.5.5.3a.6.6,0,0,0,.7-.1c.2-.1.3-.3.3-.7V9.1l-.3-.5a1,1,0,0,0-.4-.5l-.7-.6-1-.8A4.7,4.7,0,0,1,5,5.8a1.8,1.8,0,0,1-.4-.9,2,2,0,0,1-.1-1.1c0-.9.2-1.5.7-1.8A1.9,1.9,0,0,1,7,2l1.1.5.8.7a4.7,4.7,0,0,1,.5,1,5.1,5.1,0,0,1,.2,1.3v.2L8,5.2A3.7,3.7,0,0,0,7.8,4a1.3,1.3,0,0,0-.7-.6H6.6l-.3.2c-.1,0-.1.1-.1.3s-.1.2-.1.4a2.4,2.4,0,0,0,.2.8,2.3,2.3,0,0,0,.7.8L8.2,6.9a6,6,0,0,1,.8.8l.5.7a1.9,1.9,0,0,1,.2.8c0,.2.1.5.1.8s-.3,1.6-.8,1.9a2.6,2.6,0,0,1-2.1-.1,3.6,3.6,0,0,1-2-1.5,3.8,3.8,0,0,1-.6-2.2V7.7l1.6.6Z" fill="#dadadb"/><path d="M5.7,8.7v.6a.8.8,0,0,0,.2.5l.3.5.6.3h.6c.3-.1.4-.3.4-.7a3.5,3.5,0,0,0-.1-.6.8.8,0,0,0-.2-.5L7,8.2l-.7-.6-.9-.8-.7-.9A3.6,3.6,0,0,1,4.3,5a3.7,3.7,0,0,1-.1-1.1c0-.9.2-1.5.7-1.8a2.1,2.1,0,0,1,1.9,0,3.1,3.1,0,0,1,1,.5,2.7,2.7,0,0,1,.8.7,4.7,4.7,0,0,1,.5,1,5.1,5.1,0,0,1,.2,1.3v.2L7.7,5.2a3.6,3.6,0,0,0-.2-1.1,1.1,1.1,0,0,0-.7-.6H6.4c-.2,0-.3.1-.3.2s-.2.1-.2.3v.3A1.9,1.9,0,0,0,6,5a1.8,1.8,0,0,0,.7.9L8,7a4.6,4.6,0,0,1,.7.7,3.5,3.5,0,0,1,.5.8,1.9,1.9,0,0,1,.2.7,2.8,2.8,0,0,1,.1.9A2,2,0,0,1,8.7,12a3.1,3.1,0,0,1-2.1-.1,4.6,4.6,0,0,1-2-1.5A3.8,3.8,0,0,1,4,8.2V7.8l1.7.6Z" fill="#f1f1f2"/><path d="M3.4,14.1l-1.2-.5c-.1,0-.1-.1-.1-.2s.2-.3.2-.5l.4.2v.3c.2.2.4.2.7.3v-.3l-.8-.9v-.2l.2-.4H3l1,.4c.1,0,.2.1.1.2v.5l-.4-.2.2-.3-.7-.2v.2a3.4,3.4,0,0,0,.8.9v.2l-.2.5Z" fill="#fff"/><path d="M5.2,12.9l-.3,1.6H4.5a9.4,9.4,0,0,1,.4-1.6l-.6-.2v-.3l1.4.4V13Z" fill="#fff"/><path d="M5.8,14.7a13.8,13.8,0,0,1,.3-2h.3c-.1.8-.1,1.1-.2,1.9Z" fill="#fff"/><path d="M8.1,14.9H6.8c-.2,0-.2-.1-.2-.2s.1-1,.2-1.6,0-.2.1-.2H8.1c.1,0,.1,0,.1.2v.5H7.9v-.4H7.1A5.7,5.7,0,0,1,7,14.5h.9v-.4h.4v.6A.2.2,0,0,1,8.1,14.9Z" fill="#fff"/><path d="M9.8,14.7,9,14c0,.3.1.5.1.8H8.7a12.1,12.1,0,0,1-.1-1.9h.3a2.5,2.5,0,0,1,.1.8l.5-.8h.4a6,6,0,0,1-.6,1.1l1,.9H9.8Z" fill="#fff"/><path d="M10.5,14.6l-.3-1.9,1.2-.3v.3l-.9.2v.5l.8-.2v.3l-.8.2.2.5,1-.2c0,.1.1.2.1.3Z" fill="#fff"/><path d="M13.5,13.7l-.9-.5V13l.6-.2-.3-.6-.7.3a9.4,9.4,0,0,1,.6,1.5l-.4.2c-.2-.8-.4-1.2-.6-1.9l1.2-.5h.2l.3.8c.1.1.1.2,0,.2h-.3l.8.5H14Z" fill="#fff"/><polygon points="1.2 13.2 1 12.7 0.5 12.5 0.9 12.2 0.9 11.7 1.3 12 1.8 11.8 1.7 12.3 2 12.7 1.4 12.7 1.2 13.2" fill="#fff"/><polygon points="15.8 12.5 15.3 12.7 15.2 13.2 14.9 12.8 14.3 12.8 14.6 12.3 14.5 11.9 15 12 15.4 11.7 15.4 12.2 15.8 12.5" fill="#fff"/></svg>