<svg id="图层_1" data-name="图层 1" xmlns="http://www.w3.org/2000/svg" width="64" height="64" viewBox="0 0 64 64"><title>logo-63</title><rect width="64" height="64.03" fill="#221e1f"/><path d="M32.1,31.7a10.3,10.3,0,0,0,.1,2.5,4.8,4.8,0,0,0,.7,2.1A5.2,5.2,0,0,0,34.2,38a7.2,7.2,0,0,0,2.1,1.2,3.4,3.4,0,0,0,2.8-.1A3.4,3.4,0,0,0,40.4,36a8.5,8.5,0,0,0-.3-2.3,9.5,9.5,0,0,0-.9-2.1l-1.8-2c-.8-.7-1.7-1.5-2.8-2.3A32.2,32.2,0,0,1,30.8,24a20.5,20.5,0,0,1-2.6-3.4,12.2,12.2,0,0,1-1.6-3.7,19.6,19.6,0,0,1-.4-4.3c.1-3.8,1-6.2,2.9-7.4s4.3-1.2,7.5,0a26.3,26.3,0,0,1,4.1,2.1,18.3,18.3,0,0,1,3.2,3,13.6,13.6,0,0,1,2,4,15.9,15.9,0,0,1,.7,5v1l-6.4-2.4a9.5,9.5,0,0,0-.7-4.4A4.6,4.6,0,0,0,36.7,11a4.5,4.5,0,0,0-1.8-.4,2.1,2.1,0,0,0-1.8,1.8,4.1,4.1,0,0,0-.2,1.6,5.4,5.4,0,0,0,.6,3.1,9.3,9.3,0,0,0,2.7,3.3l5,4.5A22.6,22.6,0,0,1,44.3,28a16.6,16.6,0,0,1,1.9,3,14.9,14.9,0,0,1,.9,3,11.7,11.7,0,0,1,.2,3.3c0,4-1.1,6.5-3.2,7.6s-4.8.9-8.4-.4-6.4-3.4-8-5.9a16.1,16.1,0,0,1-2.3-9V28.1l6.7,2.5Z" fill="#221e1f"/><path d="M31,32a18.1,18.1,0,0,0,.2,2.5,6.5,6.5,0,0,0,.6,2.1,5.8,5.8,0,0,0,1.4,1.7,5.3,5.3,0,0,0,2.1,1.2,3.1,3.1,0,0,0,2.8-.1c.8-.4,1.2-1.5,1.3-3.1a8.5,8.5,0,0,0-.3-2.3,5.4,5.4,0,0,0-1-2,8.4,8.4,0,0,0-1.8-2.1c-.7-.7-1.6-1.4-2.7-2.3a25.7,25.7,0,0,1-3.8-3.3A16.3,16.3,0,0,1,27.1,21a13.7,13.7,0,0,1-1.5-3.8,14.6,14.6,0,0,1-.4-4.3c0-3.7,1-6.2,2.8-7.4s4.4-1.1,7.5.1a14.4,14.4,0,0,1,4.1,2.1,11.4,11.4,0,0,1,3.2,3,12.7,12.7,0,0,1,2.1,4,14.9,14.9,0,0,1,.7,4.9v1.1l-6.3-2.4a10.1,10.1,0,0,0-.8-4.5,4.5,4.5,0,0,0-2.7-2.5,3.5,3.5,0,0,0-1.9-.3,1.7,1.7,0,0,0-1.2.5,2.3,2.3,0,0,0-.6,1.2,7.8,7.8,0,0,0-.2,1.6,8.3,8.3,0,0,0,.6,3.2,10.1,10.1,0,0,0,2.7,3.2l5.1,4.5a22.8,22.8,0,0,1,3.1,3.2,12.7,12.7,0,0,1,1.8,2.9,11.8,11.8,0,0,1,1,3,32.5,32.5,0,0,1,.2,3.3c-.1,4-1.1,6.5-3.2,7.6s-4.9,1-8.4-.4-6.5-3.3-8-5.8a15.5,15.5,0,0,1-2.3-9V28.4L31,30.9Z" fill="#393536"/><path d="M30,32.4a20.1,20.1,0,0,0,.1,2.5,8.6,8.6,0,0,0,.7,2.1,6.5,6.5,0,0,0,1.3,1.6,9.1,9.1,0,0,0,2.2,1.3,3.2,3.2,0,0,0,2.7-.1c.9-.5,1.3-1.5,1.3-3.1a14,14,0,0,0-.2-2.3,10,10,0,0,0-1-2.1,16.2,16.2,0,0,0-1.8-2A24.7,24.7,0,0,0,32.5,28a42.9,42.9,0,0,1-3.8-3.3,20.5,20.5,0,0,1-2.6-3.4,17.3,17.3,0,0,1-1.6-3.7,19.6,19.6,0,0,1-.4-4.3c.1-3.8,1-6.3,2.9-7.4s4.3-1.2,7.5,0A19.8,19.8,0,0,1,38.6,8a13,13,0,0,1,3.2,3,13.6,13.6,0,0,1,2,4,15.3,15.3,0,0,1,.7,4.9V21l-6.4-2.4a10.2,10.2,0,0,0-.7-4.5,4.9,4.9,0,0,0-2.8-2.5,4.2,4.2,0,0,0-1.8-.3,2.3,2.3,0,0,0-1.2.6A2,2,0,0,0,31,13a4.4,4.4,0,0,0-.2,1.6,5.6,5.6,0,0,0,.6,3.2,9.3,9.3,0,0,0,2.7,3.3l5.1,4.4a28.6,28.6,0,0,1,3,3.2,20.4,20.4,0,0,1,1.9,2.9,8.6,8.6,0,0,1,.9,3,18.4,18.4,0,0,1,.3,3.3c-.1,4-1.2,6.6-3.2,7.7s-4.9.9-8.5-.5-6.4-3.3-8-5.8a16.3,16.3,0,0,1-2.3-9V28.8L30,31.3Z" fill="#504d4e"/><path d="M29,32.7a10.3,10.3,0,0,0,.1,2.5,4.8,4.8,0,0,0,.7,2.1A5.2,5.2,0,0,0,31.1,39a7.2,7.2,0,0,0,2.1,1.2,3.4,3.4,0,0,0,2.8-.1A3.4,3.4,0,0,0,37.3,37a8.5,8.5,0,0,0-.3-2.3,9.5,9.5,0,0,0-.9-2.1l-1.8-2-2.8-2.3A32.2,32.2,0,0,1,27.7,25,16.8,16.8,0,0,1,25,21.6a12,12,0,0,1-1.5-3.7,14.6,14.6,0,0,1-.4-4.3c0-3.8,1-6.2,2.8-7.4s4.4-1.1,7.5,0a22.5,22.5,0,0,1,4.1,2.1,15.4,15.4,0,0,1,3.2,3,13.9,13.9,0,0,1,2.1,4,15.5,15.5,0,0,1,.7,5v1l-6.3-2.4a9.4,9.4,0,0,0-.8-4.4A4.2,4.2,0,0,0,33.6,12a5.4,5.4,0,0,0-1.9-.4,2.1,2.1,0,0,0-1.8,1.8,7.8,7.8,0,0,0-.2,1.6,8.7,8.7,0,0,0,.6,3.2A10.1,10.1,0,0,0,33,21.4l5.1,4.5A22.6,22.6,0,0,1,41.2,29a16.6,16.6,0,0,1,1.9,3,13.2,13.2,0,0,1,.9,3,17.2,17.2,0,0,1,.2,3.3c0,4-1.1,6.5-3.1,7.6s-4.9.9-8.5-.4a15.8,15.8,0,0,1-8-5.8,15.5,15.5,0,0,1-2.3-9V29.1L29,31.6Z" fill="#676465"/><path d="M27.9,33.1a9.3,9.3,0,0,0,.2,2.4,6.5,6.5,0,0,0,.6,2.1,5.8,5.8,0,0,0,1.4,1.7,5.3,5.3,0,0,0,2.1,1.2,3.1,3.1,0,0,0,2.8-.1c.8-.4,1.2-1.5,1.2-3.1A5.8,5.8,0,0,0,36,35a5.4,5.4,0,0,0-1-2,8.4,8.4,0,0,0-1.8-2.1l-2.8-2.3-3.8-3.2A20.5,20.5,0,0,1,24,22a17.3,17.3,0,0,1-1.6-3.7,20.6,20.6,0,0,1-.4-4.4c.1-3.7,1-6.2,2.9-7.3s4.3-1.2,7.5,0a15.9,15.9,0,0,1,4.1,2.1,12.8,12.8,0,0,1,5.2,6.9,15.9,15.9,0,0,1,.7,5v1L36,19.3a10.2,10.2,0,0,0-.7-4.5,4.9,4.9,0,0,0-2.8-2.5,3.1,3.1,0,0,0-1.8-.3,1.7,1.7,0,0,0-1.2.5,2.3,2.3,0,0,0-.6,1.2,4.1,4.1,0,0,0-.2,1.6,6.8,6.8,0,0,0,.6,3.2A9.1,9.1,0,0,0,32,21.7l5.1,4.5a28,28,0,0,1,3,3.1,12.5,12.5,0,0,1,1.9,3,11.8,11.8,0,0,1,1,3,32.5,32.5,0,0,1,.2,3.3c-.1,4-1.1,6.5-3.2,7.6s-4.8,1-8.4-.4-6.5-3.3-8-5.8a15.5,15.5,0,0,1-2.3-9V29.5l6.6,2.4Z" fill="#7e7c7d"/><path d="M26.9,33.4a20.1,20.1,0,0,0,.1,2.5,6.5,6.5,0,0,0,.7,2.1A7,7,0,0,0,29,39.7a9.1,9.1,0,0,0,2.2,1.2,3.2,3.2,0,0,0,2.7-.1c.9-.5,1.3-1.5,1.3-3.1a7.5,7.5,0,0,0-.3-2.3,6.4,6.4,0,0,0-.9-2.1,16.2,16.2,0,0,0-1.8-2c-.8-.7-1.7-1.5-2.8-2.3a32.2,32.2,0,0,1-3.8-3.3,21.2,21.2,0,0,1-2.7-3.4,12,12,0,0,1-1.5-3.7,15,15,0,0,1-.4-4.3c0-3.8,1-6.2,2.8-7.4s4.4-1.2,7.5,0A22.5,22.5,0,0,1,35.4,9a11.4,11.4,0,0,1,3.2,3,13.9,13.9,0,0,1,2.1,4,15.3,15.3,0,0,1,.7,4.9V22L35,19.6a10.1,10.1,0,0,0-.8-4.5,4.5,4.5,0,0,0-2.7-2.5l-1.9-.3a2.1,2.1,0,0,0-1.8,1.8,6.8,6.8,0,0,0-.2,1.5,7.9,7.9,0,0,0,.6,3.2A9.8,9.8,0,0,0,31,22.1l5,4.4a22.8,22.8,0,0,1,3.1,3.2A16,16,0,0,1,41,32.6a11.4,11.4,0,0,1,.9,3,16.9,16.9,0,0,1,.3,3.3c-.1,4-1.2,6.6-3.2,7.6s-4.9,1-8.5-.3-6.4-3.4-8-5.9a15.9,15.9,0,0,1-2.3-9V29.8l6.7,2.5Z" fill="#959394"/><path d="M25.8,33.7a18.1,18.1,0,0,0,.2,2.5,4.8,4.8,0,0,0,.7,2.1A5.2,5.2,0,0,0,28,40a7.2,7.2,0,0,0,2.1,1.2,3.4,3.4,0,0,0,2.8-.1A3.4,3.4,0,0,0,34.2,38a8.5,8.5,0,0,0-.3-2.3,6.7,6.7,0,0,0-1-2.1,10.4,10.4,0,0,0-1.8-2c-.7-.7-1.6-1.4-2.7-2.3A25.7,25.7,0,0,1,24.6,26a16.3,16.3,0,0,1-2.7-3.3,12.6,12.6,0,0,1-1.5-3.8,14.5,14.5,0,0,1-.5-4.3c.1-3.7,1-6.2,2.9-7.4s4.3-1.1,7.5,0a26.3,26.3,0,0,1,4.1,2.1,18.3,18.3,0,0,1,3.2,3,11.6,11.6,0,0,1,2,4,12.9,12.9,0,0,1,.7,4.9v1.1l-6.4-2.4a9.5,9.5,0,0,0-.7-4.4A4.6,4.6,0,0,0,30.4,13a3.1,3.1,0,0,0-1.8-.3,1.7,1.7,0,0,0-1.2.5,2.3,2.3,0,0,0-.6,1.2,4.1,4.1,0,0,0-.2,1.6,8.7,8.7,0,0,0,.6,3.2,10.1,10.1,0,0,0,2.7,3.2L35,26.9A30.1,30.1,0,0,1,38.1,30a15.9,15.9,0,0,1,1.8,3,9.6,9.6,0,0,1,1,3,16.7,16.7,0,0,1,.2,3.2c0,4.1-1.1,6.6-3.1,7.7s-4.9.9-8.5-.4-6.4-3.3-8-5.8a15.5,15.5,0,0,1-2.3-9V30.1l6.7,2.5Z" fill="#acabac"/><path d="M24.8,34.1a10.1,10.1,0,0,0,.2,2.5,8.3,8.3,0,0,0,.6,2.1A5.2,5.2,0,0,0,27,40.3a5.3,5.3,0,0,0,2.1,1.2,3.1,3.1,0,0,0,2.8-.1c.8-.4,1.2-1.5,1.2-3.1a5.8,5.8,0,0,0-.2-2.3,5.4,5.4,0,0,0-1-2,8.4,8.4,0,0,0-1.8-2.1l-2.8-2.2-3.8-3.3A20.5,20.5,0,0,1,20.9,23a11,11,0,0,1-1.6-3.7,15,15,0,0,1-.4-4.3c0-3.8,1-6.3,2.8-7.4s4.4-1.2,7.5,0a14.4,14.4,0,0,1,4.1,2.1,13,13,0,0,1,3.2,3,13.3,13.3,0,0,1,2.1,3.9,15.9,15.9,0,0,1,.7,5v1l-6.4-2.3a10.1,10.1,0,0,0-.8-4.5,4.5,4.5,0,0,0-2.7-2.5,3.5,3.5,0,0,0-1.9-.3,2.2,2.2,0,0,0-1.2.5,2.3,2.3,0,0,0-.6,1.2,7.8,7.8,0,0,0-.2,1.6,8.3,8.3,0,0,0,.6,3.2,9.6,9.6,0,0,0,2.8,3.2L34,27.2a28.4,28.4,0,0,1,3,3.1,16.6,16.6,0,0,1,1.9,3,11.8,11.8,0,0,1,1,3,32.5,32.5,0,0,1,.2,3.3c-.1,4-1.1,6.5-3.2,7.6s-4.8,1-8.4-.4-6.5-3.3-8-5.8a16.3,16.3,0,0,1-2.4-9V30.5L24.8,33Z" fill="#c3c2c3"/><path d="M23.8,34.4a20.1,20.1,0,0,0,.1,2.5,4.8,4.8,0,0,0,.7,2.1,7,7,0,0,0,1.3,1.7,6.6,6.6,0,0,0,2.2,1.2,3.2,3.2,0,0,0,2.7-.1c.9-.5,1.3-1.5,1.3-3.1a7.5,7.5,0,0,0-.3-2.3,9.5,9.5,0,0,0-.9-2.1,16.2,16.2,0,0,0-1.8-2c-.8-.7-1.7-1.5-2.8-2.3a25.7,25.7,0,0,1-3.8-3.3,16.8,16.8,0,0,1-2.7-3.4,12,12,0,0,1-1.5-3.7,14.5,14.5,0,0,1-.5-4.3c.1-3.7,1-6.2,2.9-7.4s4.3-1.2,7.5,0A26.3,26.3,0,0,1,32.3,10a13,13,0,0,1,3.2,3,11.6,11.6,0,0,1,2,4,12.9,12.9,0,0,1,.7,4.9V23l-6.3-2.4a11.7,11.7,0,0,0-.8-4.5,4.9,4.9,0,0,0-2.8-2.5l-1.8-.3a2.1,2.1,0,0,0-1.8,1.8,4.1,4.1,0,0,0-.2,1.6,7.8,7.8,0,0,0,.6,3.1,9.3,9.3,0,0,0,2.7,3.3l5.1,4.4A22.8,22.8,0,0,1,36,30.7a16,16,0,0,1,1.9,2.9,11.4,11.4,0,0,1,.9,3,16.9,16.9,0,0,1,.3,3.3c-.1,4-1.2,6.6-3.2,7.6s-4.9,1-8.5-.3a16.2,16.2,0,0,1-8-5.8,16.3,16.3,0,0,1-2.3-9V30.8l6.7,2.5Z" fill="#dadadb"/><path d="M22.7,34.7a18.1,18.1,0,0,0,.2,2.5,6.5,6.5,0,0,0,.6,2.1A7.5,7.5,0,0,0,24.9,41,7.2,7.2,0,0,0,27,42.2a3,3,0,0,0,2.8-.1A3.4,3.4,0,0,0,31.1,39a8.5,8.5,0,0,0-.3-2.3,6.7,6.7,0,0,0-1-2.1,10.4,10.4,0,0,0-1.8-2c-.7-.7-1.7-1.4-2.8-2.3l-3.8-3.2a20.5,20.5,0,0,1-2.6-3.4A13.4,13.4,0,0,1,17.2,20a15.3,15.3,0,0,1-.4-4.3c0-3.8,1-6.3,2.8-7.4s4.4-1.2,7.5-.1a22.5,22.5,0,0,1,4.1,2.1,18.3,18.3,0,0,1,3.2,3,13.9,13.9,0,0,1,2.1,4,15.3,15.3,0,0,1,.7,4.9v1.1l-6.4-2.4a9.4,9.4,0,0,0-.8-4.4A4.5,4.5,0,0,0,27.3,14a3.5,3.5,0,0,0-1.9-.3,1.7,1.7,0,0,0-1.2.5,2.3,2.3,0,0,0-.6,1.2,7.8,7.8,0,0,0-.2,1.6,8.3,8.3,0,0,0,.6,3.2,12.4,12.4,0,0,0,2.8,3.2l5.1,4.5a28.4,28.4,0,0,1,3,3.1,14.3,14.3,0,0,1,1.9,2.9,11.8,11.8,0,0,1,1,3,18.3,18.3,0,0,1,.2,3.3c0,4-1.1,6.6-3.1,7.7s-4.9.9-8.5-.4-6.4-3.3-8-5.8a15.5,15.5,0,0,1-2.3-9V31.2l6.6,2.4Z" fill="#f1f1f2"/><path d="M13.5,56.3a44.7,44.7,0,0,1-4.6-1.9.7.7,0,0,1-.4-1l.8-1.7,1.5.7-.6,1.3,2.9,1.2.5-1.3c-1.3-1.4-2-2.1-3.1-3.5a.8.8,0,0,1-.1-.8l.9-1.7c.2-.4.5-.6.9-.4l4,1.6c.4.1.5.5.4.9a11.5,11.5,0,0,0-.6,1.7l-1.4-.5a5.6,5.6,0,0,1,.4-1.2l-2.6-1.1-.5,1.1c1.2,1.4,1.8,2.1,3.1,3.4a.8.8,0,0,1,.2.8l-.7,2A.7.7,0,0,1,13.5,56.3Z" fill="#fff"/><path d="M20.9,51.5,19.4,58l-1.6-.4c.7-2.6,1-3.9,1.7-6.4l-2.2-.7a5.6,5.6,0,0,0,.4-1.2,36.5,36.5,0,0,0,5.7,1.4L23.1,52Z" fill="#fff"/><path d="M23,58.7c.5-3.1.8-4.7,1.3-7.8l1.4.2-1,7.9Z" fill="#fff"/><path d="M32.3,59.4a45.2,45.2,0,0,1-5.2-.2c-.5,0-.7-.3-.7-.8l.7-6.4a.6.6,0,0,1,.7-.7l4.4.2a.6.6,0,0,1,.7.7v2H31.5V52.7h-3c-.2,2.2-.3,3.3-.4,5.4l3.3.2V56.6H33v2.1C33.1,59.1,32.8,59.4,32.3,59.4Z" fill="#fff"/><path d="M39.2,59c-1.3-1.2-1.9-1.9-3.1-3.1.1,1.3.2,2,.3,3.4H34.7c-.1-3.2-.2-4.8-.4-8h1.4c.1,1.3.2,2,.3,3.2a37.2,37.2,0,0,0,1.9-3.4l1.7-.2h0A33,33,0,0,1,37.3,55c1.5,1.5,2.3,2.2,3.9,3.6h.1Z" fill="#fff"/><path d="M42.1,58.5c-.6-3.1-.9-4.7-1.4-7.8a38.9,38.9,0,0,0,4.9-1.2,5.6,5.6,0,0,1,.4,1.2,25.4,25.4,0,0,1-3.7,1,12.9,12.9,0,0,1,.4,1.9l3.2-.7.3,1.1a18.7,18.7,0,0,1-3.2.8l.4,2.1a32,32,0,0,0,4.2-1l.4,1.2A42,42,0,0,1,42.1,58.5Z" fill="#fff"/><path d="M54,54.9l-3.7-2.2-.3-.8,2.2-.9a20.4,20.4,0,0,1-.9-2.2l-2.7,1.1c.9,2.5,1.4,3.7,2.3,6.3l-1.6.5-2.5-7.6a30.2,30.2,0,0,0,4.7-1.8.7.7,0,0,1,.9.4l1.4,3a.7.7,0,0,1-.4,1l-1.1.5,3.5,1.9h0Z" fill="#fff"/><polygon points="4.6 52.7 4 50.7 1.9 50.2 3.6 48.9 3.6 46.8 5.3 48 7.2 47.3 6.6 49.3 7.9 51 5.8 51 4.6 52.7" fill="#fff"/><polygon points="63.3 50 61.3 50.7 60.7 52.7 59.4 51 57.3 51.1 58.6 49.4 57.8 47.4 59.8 48 61.5 46.7 61.5 48.8 63.3 50" fill="#fff"/></svg>